<?xml version="1.0" encoding="UTF-8"?>
<svg id="Camada_1" data-name="Camada 1" xmlns="http://www.w3.org/2000/svg" viewBox="0 0 697.44 680">
  <defs>
    <style>
      .cls-1 {
        fill: #ebe6e0;
        stroke-width: 0px;
      }
    </style>
  </defs>
  <polygon class="cls-1" points="225.42 227.95 262.88 349.12 188.95 349.12 225.42 227.95"/>
  <path class="cls-1" d="M573.93,0H123.5C55.3,0,0,55.3,0,123.5v432.99c0,68.2,55.3,123.5,123.5,123.5h450.43c68.2,0,123.5-55.3,123.5-123.5V123.5c0-68.2-55.3-123.5-123.5-123.5ZM369.55,479.49h-60.82c-2.18.23-4.16-1.16-4.68-3.28l-23.89-69.37h-108.07l-22,68.44c-.61,2.59-2.96,4.33-5.61,4.21h-54.72c-3.14,0-4.21-1.71-3.28-5.14l93.57-268.37c.93-2.82,1.89-5.55,2.82-9.12,1.22-6.25,1.83-12.61,1.86-18.98-.23-1.6.87-3.05,2.44-3.28.26-.03.55-.03.81,0h74.39c2.18,0,3.43.78,3.72,2.35l106.21,297.86c.96,3.11.03,4.68-2.76,4.68ZM597.62,363.65c-.46,5.61-.87,9.68-1.16,12.18-.23,2.15-2.06,3.75-4.21,3.75-1.86,0-5.06.23-9.59.7-4.53.46-10.14.78-16.85.93-6.71.17-13.8-.99-21.27-.99h-92.18c1.13,9.12,4.16,17.9,8.89,25.78,5.23,7.82,12.61,13.89,21.27,17.55,11.74,5.09,24.41,7.56,37.2,7.29,10.14-.2,20.23-1.31,30.19-3.31,8.89-1.19,17.58-3.49,25.95-6.74,1.54-1.25,2.35-.46,2.35,2.32v44.46c.09,1.22-.17,2.41-.7,3.52-.52.84-1.25,1.57-2.09,2.09-9.27,4.1-19.01,7-29,8.63-13.57,2.56-27.35,3.72-41.18,3.52-34.96,0-69.22-10.14-92.18-37.89-18.08-21.88-26.21-52.1-26.21-80.47,0-30.77,9.27-61.93,29-85.84,21.39-25.89,50.83-36.7,83.75-36.7,28.28,0,57.57,9.5,75.79,32.05,15.31,18.92,22.93,44.4,22.93,68.55.03,6.77-.23,12.99-.7,18.63ZM497.27,294.87c-16.07-.99-31.24,7.64-38.59,21.97-3.23,6.51-5.35,13.51-6.31,20.72h61.29c7.5,0,13.02-.06,16.62-.23,2.38-.23,4.71-1.02,6.77-2.24v-2.82c-.09-3.66-.73-7.29-1.86-10.75-5.2-16.39-20.72-27.32-37.92-26.65Z"/>
</svg>