<?xml version="1.0" encoding="UTF-8"?>
<svg id="Camada_1" data-name="Camada 1" xmlns="http://www.w3.org/2000/svg" viewBox="0 0 472.77 680">
  <defs>
    <style>
      .cls-1 {
        fill: #ebe6e0;
        stroke-width: 0px;
      }
    </style>
  </defs>
  <g id="Group">
    <g id="Rectangle_55_2" data-name="Rectangle 55_2">
      <path class="cls-1" d="M415.23,233.61c34.62-22.75,57.55-61.97,57.55-106.39C472.77,57.06,415.68,0,345.53,0H127.24C57.09,0,0,57.06,0,127.22,0,171.64,22.92,210.86,57.54,233.61,22.92,256.36,0,295.57,0,340s22.92,83.64,57.54,106.39C22.92,469.11,0,508.33,0,552.78c0,70.15,57.38,127.22,127.93,127.22s129.31-57.69,129.31-128.6v-117.33c22.61,20.6,52.64,33.15,85.54,33.15h2.75c70.15,0,127.25-57.06,127.25-127.22,0-44.43-22.92-83.64-57.55-106.39ZM257.21,41.68h88.31c47.17,0,85.57,38.36,85.57,85.54s-38.39,85.57-85.57,85.57h-88.32V41.68h0ZM41.68,127.22c0-47.17,38.39-85.54,85.57-85.54h88.31v171.11h-88.31c-47.17,0-85.57-38.39-85.57-85.57ZM41.68,340c0-47.17,38.39-85.54,85.57-85.54h88.31v171.11h-88.85c-46.92-.31-85.03-38.59-85.03-85.57ZM215.56,551.4c0,47.94-39.33,86.93-87.63,86.93s-86.25-38.36-86.25-85.54,38.39-85.57,85.57-85.57h88.32v84.18h0ZM345.53,425.57h-2.75c-47.17,0-85.54-38.39-85.54-85.57s38.36-85.54,85.54-85.54h2.75c47.17,0,85.57,38.36,85.57,85.54s-38.39,85.57-85.57,85.57Z"/>
    </g>
  </g>
</svg>