<?xml version="1.0" encoding="UTF-8"?>
<svg id="Camada_1" data-name="Camada 1" xmlns="http://www.w3.org/2000/svg" viewBox="0 0 697.44 680">
  <defs>
    <style>
      .cls-1 {
        fill: #ebe6e0;
        stroke-width: 0px;
      }
    </style>
  </defs>
  <g id="Layer_2" data-name="Layer 2">
    <g id="Surfaces">
      <g id="Drawing_Surface" data-name="Drawing Surface">
        <g id="Outline_no_shadow" data-name="Outline no shadow">
          <path class="cls-1" d="M283.33,227.83h-.58l-36.03,121.18h73.81l-37.2-121.18ZM283.33,227.83h-.58l-36.03,121.18h73.81l-37.2-121.18ZM573.93,0H123.5C55.21,0,0,55.21,0,123.5v432.99c0,68.29,55.21,123.5,123.5,123.5h450.43c68.29,0,123.5-55.21,123.5-123.5V123.5c0-68.29-55.21-123.5-123.5-123.5ZM427.18,480.36h-60.74c-2.03.29-4.07-1.16-4.65-3.2l-23.83-69.16h-108.1l-22.09,68.29c-.58,2.62-2.91,4.36-5.52,4.07h-54.63c-3.2,0-4.07-1.74-3.2-5.23l93.57-269.38c.87-2.91,1.74-6.1,2.91-9.59,1.16-6.1,1.74-12.5,1.74-18.89-.29-1.45.87-2.91,2.32-3.2h75.26c2.32,0,3.49.87,3.78,2.32l106.07,299.32c.87,3.2,0,4.65-2.91,4.65ZM525.98,476c0,3.2-1.16,4.65-3.78,4.65h-56.96c-2.91,0-4.36-1.74-4.36-4.65v-223.76c0-2.91,1.16-4.07,3.78-4.07h57.54c2.62,0,3.78,1.45,3.78,4.07v223.76h0ZM519.88,213.59c-6.68,6.97-16.56,10.75-26.44,10.17-9.59.29-18.89-3.49-25.86-10.17-6.68-7.26-10.17-16.85-9.88-26.74-.29-9.88,3.49-19.18,10.46-25.86,6.97-6.68,16.27-10.17,25.86-10.17,11.33,0,20.05,3.49,26.44,10.17,6.39,6.97,9.88,16.27,9.59,25.86.29,9.88-3.2,19.47-10.17,26.74ZM282.75,227.83l-36.03,121.18h73.81l-37.2-121.18h-.58Z"/>
        </g>
      </g>
    </g>
  </g>
</svg>