<?xml version="1.0" encoding="UTF-8"?>
<svg id="Camada_1" data-name="Camada 1" xmlns="http://www.w3.org/2000/svg" viewBox="0 0 680 680">
  <defs>
    <style>
      .cls-1 {
        fill: #ebe6e0;
        stroke-width: 0px;
      }
    </style>
  </defs>
  <path class="cls-1" d="M0,0v680h680V0H0ZM370.05,530.34c0,66.18-38.86,96.38-95.47,96.38-51.15,0-80.75-26.41-95.93-58.44l52.06-31.42c10.02,17.76,19.13,32.79,41.13,32.79s34.3-8.2,34.3-40.22v-217.21h63.9v218.12h0ZM521.23,626.72c-59.35,0-97.75-28.23-116.42-65.27l52.06-30.05c13.66,22.31,31.57,38.86,62.99,38.86,26.41,0,43.41-13.21,43.41-31.57,0-21.86-17.3-29.6-46.6-42.5l-15.94-6.83c-46.14-19.58-76.65-44.32-76.65-96.38,0-47.96,36.58-84.39,93.5-84.39,40.68,0,69.82,14.12,90.77,51.15l-49.79,31.87c-10.93-19.58-22.77-27.32-41.13-27.32s-30.51,11.84-30.51,27.32c0,19.13,11.84,26.87,39.31,38.86l15.94,6.83c54.34,23.22,84.85,47.05,84.85,100.48,0,57.37-45.23,88.95-105.79,88.95h0Z"/>
</svg>