<?xml version="1.0" encoding="UTF-8"?>
<svg id="Camada_1" data-name="Camada 1" xmlns="http://www.w3.org/2000/svg" viewBox="0 0 697.44 680">
  <defs>
    <style>
      .cls-1 {
        fill: #ebe6e0;
        stroke-width: 0px;
      }
    </style>
  </defs>
  <g id="Layer_2" data-name="Layer 2">
    <g id="Surfaces">
      <g id="Video_Audio_Surface" data-name="Video Audio Surface">
        <g id="Outline_no_shadow" data-name="Outline no shadow">
          <path class="cls-1" d="M315.3,252.53c4.65,7.85,6.97,16.85,6.68,25.86,0,12.79-2.91,22.67-9.01,29.93-6.39,7.26-14.53,12.79-23.83,15.4-10.75,3.49-22.09,5.23-33.42,5.23h-15.4c-3.49,0-7.26-.29-11.33-.58v-97.64c2.03-.29,6.1-.58,11.91-.29,5.52-.29,12.21-.29,19.76-.29,11.91-.29,23.54,1.45,34.29,5.81,8.43,3.2,15.4,9.01,20.34,16.56Z"/>
          <path class="cls-1" d="M573.93,0H123.5C55.21,0,0,55.21,0,123.5v432.99c0,68.29,55.21,123.5,123.5,123.5h450.43c68.29,0,123.5-55.21,123.5-123.5V123.5c0-68.29-55.21-123.5-123.5-123.5ZM367.9,338.55c-25.83,36.18-70.21,45.33-112.17,45.33-6.97,0-11.62,0-14.53-.29s-6.97-.29-12.5-.29v93.28c.29,2.03-1.16,3.78-3.2,4.07h-56.38c-2.32,0-3.49-1.16-3.49-3.78V177.85c0-2.03.87-3.2,2.91-3.2,4.94,0,9.59,0,16.27-.29l73.81-1.45c23.83,0,43.59,2.91,59.86,9.01,27.2,10.2,49.87,29.32,60.15,56.96,11.68,31.38,9.01,72.04-10.75,99.68ZM566.09,303.68c0,2.32-1.45,3.2-4.65,3.2-10.46-.29-21.21.58-31.38,2.91-8.43,1.74-16.56,4.36-24.41,7.85-5.52,2.62-10.75,6.1-14.82,10.75v148.21c0,2.91-1.16,4.07-3.78,4.07h-57.25c-2.32.29-4.36-1.16-4.65-3.49v-162.15c0-6.97,0-14.24-.29-21.79-.29-7.56-.29-15.11-.58-22.67,0-6.68-.58-13.08-1.16-19.76-.29-1.45.58-2.91,2.03-3.2,0-.29.58-.29.87,0h50.85c2.91,0,5.23,2.03,6.1,4.65.87,2.32,1.45,4.65,1.74,7.26.58,2.91,1.16,6.1,1.45,9.01.29,3.2.58,6.68.58,10.46,8.72-10.17,19.18-18.6,31.09-24.99,13.37-7.56,28.77-11.33,44.17-11.33,2.03-.29,3.78,1.16,4.07,3.2v57.83h0Z"/>
        </g>
      </g>
    </g>
  </g>
</svg>