<?xml version="1.0" encoding="UTF-8"?>
<svg id="Camada_1" data-name="Camada 1" xmlns="http://www.w3.org/2000/svg" viewBox="0 0 777.1 680">
  <defs>
    <style>
      .cls-1 {
        fill: #ebe6e0;
        stroke-width: 0px;
      }
    </style>
  </defs>
  <path class="cls-1" d="M634.73,220.36c-8.2-2.73-16.39-5.31-24.59-7.74,1.37-5.62,2.58-11.23,3.79-16.85,18.67-90.46,6.37-163.16-35.06-187.14-39.92-22.92-105.03.91-170.9,58.28-6.53,5.62-12.9,11.54-18.97,17.45-4.1-3.95-8.35-7.89-12.6-11.69C307.35,11.36,238.14-14.44,196.7,9.69c-39.77,23.07-51.6,91.52-34.91,177.12,1.67,8.5,3.49,16.85,5.62,25.35-9.71,2.73-19.28,5.77-28.23,8.95C58.13,249.2,0,293.52,0,339.36s61.93,94.86,146.16,123.7c6.83,2.28,13.66,4.55,20.64,6.53-2.28,9.11-4.25,18.06-6.07,27.32-15.94,84.24-3.49,151.02,36.27,173.94,40.98,23.68,109.89-.61,176.97-59.35,5.31-4.71,10.62-9.56,15.94-14.72,6.68,6.53,13.66,12.75,20.64,18.82,64.96,55.85,129.16,78.47,168.78,55.55,40.98-23.68,54.34-95.47,37.03-182.89-1.37-6.68-2.88-13.51-4.55-20.49,4.86-1.37,9.56-2.88,14.27-4.4,87.58-28.99,151.02-75.89,151.02-124s-59.8-90.61-142.37-118.99h0ZM429.38,91.5c56.46-49.18,109.13-68.45,133.11-54.64,25.65,14.72,35.52,74.22,19.43,152.38-1.06,5.16-2.12,10.17-3.49,15.18-33.69-7.59-67.84-13.05-102.15-16.09-19.73-28.23-41.28-55.25-64.66-80.59,5.92-5.62,11.69-10.93,17.76-16.24ZM253.77,418.13c7.74,13.2,15.63,26.41,23.98,39.31-23.68-2.58-47.2-6.37-70.42-11.38,6.68-21.86,15.03-44.47,24.74-67.54,6.98,13.36,14.12,26.56,21.7,39.61h0ZM207.78,235.54c21.86-4.86,45.08-8.8,69.21-11.84-8.04,12.6-15.94,25.5-23.37,38.55-7.44,12.9-14.72,26.11-21.55,39.46-9.56-22.61-17.61-44.77-24.28-66.18h0ZM249.37,340.11c10.02-20.95,20.95-41.44,32.48-61.62s23.98-39.77,37.03-59.04c22.77-1.67,45.99-2.58,69.67-2.58s47.05.91,69.67,2.58c12.9,19.12,25.2,38.7,36.88,58.74,11.69,20.03,22.61,40.52,32.94,61.32-10.17,20.95-21.1,41.59-32.78,61.93-11.54,20.19-23.83,39.77-36.73,59.19-22.61,1.67-46.14,2.43-69.97,2.43s-46.9-.76-69.21-2.12c-13.2-19.28-25.65-39.01-37.34-59.19-11.69-20.19-22.46-40.68-32.63-61.62h0ZM523.48,417.82c7.74-13.36,15.03-26.86,22.16-40.52,9.71,22.01,18.21,44.32,25.65,67.24-23.53,5.31-47.35,9.41-71.34,12.14,8.2-12.75,15.94-25.8,23.53-38.86h0ZM545.34,301.71c-7.13-13.36-14.42-26.71-22.01-39.77-7.44-12.9-15.18-25.65-23.22-38.25,24.44,3.04,47.81,7.13,69.67,12.14-6.98,22.46-15.18,44.32-24.44,65.87ZM388.85,130.97c15.94,17.3,30.96,35.52,44.93,54.34-30.05-1.37-60.26-1.37-90.31,0,14.87-19.58,30.2-37.79,45.38-54.34ZM212.79,37.93c25.5-14.87,82.11,6.37,141.76,59.19,3.79,3.34,7.59,6.98,11.54,10.62-23.53,25.35-45.23,52.36-65.11,80.59-34.3,3.04-68.3,8.35-101.99,15.78-1.97-7.74-3.64-15.63-5.31-23.53-14.27-73.46-4.86-128.86,19.12-142.67h0ZM175.61,438.01c-6.37-1.82-12.6-3.79-18.82-5.92-32.33-10.17-69.06-26.26-95.62-47.35-15.33-10.62-25.65-27.02-28.53-45.38,0-27.78,47.96-63.29,117.17-87.42,8.65-3.04,17.45-5.77,26.26-8.35,10.32,32.94,22.77,65.26,37.19,96.53-14.57,31.72-27.17,64.51-37.64,97.9ZM352.58,586.75c-25.04,22.92-54.03,41.13-85.6,53.58-16.85,8.04-36.27,8.8-53.58,1.97-24.13-13.96-34.15-67.54-20.49-139.64,1.67-8.5,3.49-17,5.62-25.35,34,7.29,68.3,12.29,103.06,14.87,20.03,28.38,42.04,55.55,65.57,81.05-4.86,4.71-9.71,9.26-14.57,13.51h0ZM389.76,549.87c-15.48-16.7-30.96-35.21-45.99-55.1,14.57.61,29.6.91,44.77.91s30.96-.3,46.14-1.06c-13.96,19.28-28.99,37.64-44.93,55.25ZM588.14,595.4c-1.37,18.52-10.47,35.82-25.04,47.51-24.13,13.96-75.59-4.25-131.14-51.91-6.37-5.46-12.75-11.38-19.28-17.45,23.22-25.65,44.62-52.82,64.05-81.35,34.76-2.88,69.36-8.2,103.51-15.94,1.52,6.22,2.88,12.45,4.1,18.52,7.44,32.78,8.65,66.93,3.79,100.63h0ZM615.76,432.24c-4.25,1.37-8.5,2.73-12.9,3.95-10.62-33.09-23.68-65.42-38.7-96.83,14.57-30.96,26.86-62.84,37.19-95.47,7.89,2.28,15.48,4.71,22.77,7.13,70.73,24.28,120.36,60.41,120.36,88.03,0,29.75-52.97,68.15-128.71,93.19ZM388.55,409.48c38.4,0,69.51-31.11,69.51-69.51s-31.11-69.51-69.51-69.51-69.51,31.11-69.51,69.51,31.11,69.51,69.51,69.51h0Z"/>
</svg>