<?xml version="1.0" encoding="UTF-8"?>
<svg id="Camada_1" data-name="Camada 1" xmlns="http://www.w3.org/2000/svg" viewBox="0 0 180.87 127.16">
  <defs>
    <style>
      .cls-1 {
        fill: #7877df;
        stroke-width: 0px;
      }
    </style>
  </defs>
  <path class="cls-1" d="M177.1,19.9c-2.09-7.85-8.21-14.01-15.99-16.09C147,0,90.44,0,90.44,0c0,0-56.56,0-70.67,3.81C11.99,5.89,5.86,12.05,3.78,19.9,0,34.11,0,63.71,0,63.71c0,0,0,29.6,3.78,43.81,2.09,7.85,8.21,13.74,15.99,15.83,14.11,3.81,70.67,3.81,70.67,3.81,0,0,56.56,0,70.67-3.81,7.78-2.09,13.91-8.01,15.99-15.83,3.78-14.21,3.78-43.81,3.78-43.81,0,0,0-29.6-3.78-43.81h0ZM71.96,90.6v-53.78l47.26,26.89-47.26,26.89h0Z"/>
</svg>