<?xml version="1.0" encoding="UTF-8"?>
<svg id="Camada_1" data-name="Camada 1" xmlns="http://www.w3.org/2000/svg" viewBox="0 0 3200 410.86">
  <defs>
    <style>
      .cls-1 {
        fill-rule: evenodd;
      }

      .cls-1, .cls-2, .cls-3 {
        fill: #7877df;
      }

      .cls-1, .cls-2, .cls-4 {
        stroke-width: 0px;
      }

      .cls-5 {
        letter-spacing: 0em;
      }

      .cls-6 {
        fill: #fff;
        font-size: 36.36px;
      }

      .cls-6, .cls-3 {
        font-family: QuicksandBook-Regular, Quicksand;
      }

      .cls-7 {
        letter-spacing: -.02em;
      }

      .cls-3 {
        font-size: 20.18px;
      }

      .cls-4 {
        fill: #2d2d2d;
      }

      .cls-8 {
        letter-spacing: 0em;
      }

      .cls-9 {
        letter-spacing: .01em;
      }

      .cls-10 {
        letter-spacing: -.01em;
      }

      .cls-11 {
        letter-spacing: -.02em;
      }

      .cls-12 {
        fill: none;
        stroke: #7877df;
        stroke-linecap: round;
        stroke-miterlimit: 10;
      }
    </style>
  </defs>
  <rect class="cls-4" width="3200" height="410.86"/>
  <g>
    <g>
      <path class="cls-2" d="M1137.56,183.43c1.17,1.17,1.75,2.68,1.75,4.53v63.65c0,1.79-.58,3.28-1.75,4.48-1.17,1.2-2.64,1.8-4.43,1.8s-3.24-.58-4.38-1.75c-1.13-1.17-1.73-2.64-1.8-4.43-1.72,1.99-4.03,3.69-6.95,5.1-2.92,1.41-5.99,2.11-9.22,2.11-4.74,0-9.03-1.22-12.87-3.66-3.85-2.44-6.88-5.82-9.11-10.14-2.23-4.33-3.35-9.23-3.35-14.73s1.1-10.42,3.3-14.78c2.2-4.36,5.2-7.76,9.01-10.2,3.81-2.44,8.02-3.66,12.62-3.66,3.3,0,6.39.6,9.27,1.8,2.88,1.2,5.32,2.73,7.31,4.58v-20.19c0-1.78.58-3.28,1.75-4.48,1.17-1.2,2.64-1.8,4.43-1.8s3.26.58,4.43,1.75ZM1123.25,242.7c2.81-3.26,4.22-7.36,4.22-12.31s-1.41-9.06-4.22-12.36c-2.82-3.3-6.45-4.94-10.92-4.94s-8,1.65-10.81,4.94c-2.82,3.3-4.22,7.42-4.22,12.36s1.39,9.05,4.17,12.31c2.78,3.26,6.4,4.89,10.87,4.89s8.1-1.63,10.92-4.89Z"/>
      <path class="cls-2" d="M1204.65,228.05c-1.45,1.21-3.15,1.82-5.09,1.82h-39.97c.97,4.76,3.19,8.5,6.66,11.2,3.47,2.71,7.39,4.06,11.75,4.06,3.31,0,5.89-.3,7.75-.91s3.33-1.25,4.42-1.94c1.09-.69,1.84-1.15,2.24-1.39,1.45-.73,2.83-1.09,4.12-1.09,1.7,0,3.15.61,4.36,1.82,1.21,1.21,1.82,2.62,1.82,4.24,0,2.18-1.13,4.16-3.39,5.94-2.26,1.86-5.29,3.43-9.08,4.72-3.8,1.29-7.63,1.94-11.51,1.94-6.78,0-12.7-1.41-17.74-4.24-5.05-2.83-8.94-6.72-11.69-11.69-2.75-4.97-4.12-10.56-4.12-16.78,0-6.94,1.45-13.04,4.36-18.29,2.91-5.25,6.74-9.27,11.51-12.05,4.76-2.79,9.85-4.18,15.26-4.18s10.36,1.45,15.08,4.36c4.72,2.91,8.5,6.83,11.33,11.75,2.83,4.93,4.24,10.26,4.24,15.99-.08,1.94-.85,3.51-2.3,4.72ZM1159.71,217.76h31.73v-.85c-.32-3.39-1.98-6.3-4.97-8.72-2.99-2.42-6.38-3.63-10.17-3.63-9.37,0-14.9,4.4-16.59,13.2Z"/>
      <path class="cls-2" d="M1105.79,128.24c1.03,1.03,1.54,2.36,1.54,3.99v38.31c0,1.57-.51,2.88-1.54,3.94-1.03,1.06-2.33,1.59-3.89,1.59s-2.85-.51-3.85-1.54c-1-1.03-1.53-2.32-1.58-3.89-1.51,1.75-3.55,3.25-6.11,4.48-2.57,1.24-5.27,1.86-8.11,1.86-4.17,0-7.94-1.07-11.32-3.22-3.38-2.14-6.05-5.12-8.02-8.92-1.96-3.8-2.94-8.12-2.94-12.95s.97-9.16,2.9-13c1.93-3.83,4.57-6.82,7.93-8.97,3.35-2.14,7.05-3.22,11.09-3.22,2.9,0,5.62.53,8.15,1.58,2.54,1.06,4.68,2.4,6.43,4.03v-.09c0-1.57.51-2.88,1.54-3.94,1.03-1.06,2.32-1.58,3.89-1.58s2.87.51,3.89,1.54ZM1093.2,162.71c2.48-2.87,3.71-6.48,3.71-10.82s-1.24-7.97-3.71-10.87c-2.48-2.9-5.68-4.35-9.6-4.35s-7.03,1.45-9.51,4.35c-2.48,2.9-3.71,6.52-3.71,10.87s1.22,7.96,3.67,10.82c2.45,2.87,5.63,4.3,9.55,4.3s7.12-1.43,9.6-4.3Z"/>
      <path class="cls-2" d="M1157.78,132.18c2.35,3.65,3.53,8.71,3.53,15.17v23.19c0,1.57-.51,2.88-1.54,3.94-1.03,1.06-2.33,1.59-3.89,1.59s-2.87-.53-3.89-1.59c-1.03-1.06-1.54-2.37-1.54-3.94v-23.19c0-3.32-.7-5.93-2.08-7.83-1.39-1.9-3.77-2.85-7.16-2.85s-6.25,1.01-8.24,3.03c-1.99,2.02-2.99,4.57-2.99,7.65v23.19c0,1.57-.51,2.88-1.54,3.94-1.03,1.06-2.33,1.59-3.89,1.59s-2.87-.53-3.89-1.59c-1.03-1.06-1.54-2.37-1.54-3.94v-37.41c0-1.57.51-2.88,1.54-3.94,1.03-1.06,2.32-1.59,3.89-1.59s2.87.53,3.89,1.59c1.03,1.06,1.54,2.37,1.54,3.94v1.54c1.63-2.17,3.76-4.04,6.39-5.62,2.63-1.57,5.51-2.35,8.65-2.35,6.16,0,10.42,1.83,12.77,5.48Z"/>
      <path class="cls-2" d="M1386.55,198.56c2.35,3.65,3.53,8.71,3.53,15.17v23.19c0,1.57-.51,2.88-1.54,3.94-1.03,1.06-2.33,1.59-3.89,1.59s-2.87-.53-3.89-1.59c-1.03-1.06-1.54-2.37-1.54-3.94v-23.19c0-3.32-.7-5.93-2.08-7.83-1.39-1.9-3.77-2.85-7.16-2.85s-6.25,1.01-8.24,3.03c-1.99,2.02-2.99,4.57-2.99,7.65v23.19c0,1.57-.51,2.88-1.54,3.94-1.03,1.06-2.33,1.59-3.89,1.59s-2.87-.53-3.89-1.59c-1.03-1.06-1.54-2.37-1.54-3.94v-37.41c0-1.57.51-2.88,1.54-3.94,1.03-1.06,2.32-1.59,3.89-1.59s2.87.53,3.89,1.59c1.03,1.06,1.54,2.37,1.54,3.94v1.54c1.63-2.17,3.76-4.04,6.39-5.62,2.63-1.57,5.51-2.35,8.65-2.35,6.16,0,10.42,1.83,12.77,5.48Z"/>
      <path class="cls-2" d="M1211.76,132.18c2.35,3.65,3.53,8.71,3.53,15.17v23.19c0,1.57-.51,2.88-1.54,3.94-1.03,1.06-2.33,1.59-3.89,1.59s-2.87-.53-3.89-1.59c-1.03-1.06-1.54-2.37-1.54-3.94v-23.19c0-3.32-.7-5.93-2.08-7.83-1.39-1.9-3.77-2.85-7.16-2.85s-6.25,1.01-8.24,3.03c-1.99,2.02-2.99,4.57-2.99,7.65v23.19c0,1.57-.51,2.88-1.54,3.94-1.03,1.06-2.33,1.59-3.89,1.59s-2.87-.53-3.89-1.59c-1.03-1.06-1.54-2.37-1.54-3.94v-37.41c0-1.57.51-2.88,1.54-3.94,1.03-1.06,2.32-1.59,3.89-1.59s2.87.53,3.89,1.59c1.03,1.06,1.54,2.37,1.54,3.94v1.54c1.63-2.17,3.76-4.04,6.39-5.62,2.63-1.57,5.51-2.35,8.65-2.35,6.16,0,10.42,1.83,12.77,5.48Z"/>
      <path class="cls-2" d="M1270.17,128.24c1.03,1.03,1.54,2.36,1.54,3.99v38.31c0,1.57-.51,2.88-1.54,3.94-1.03,1.06-2.33,1.59-3.89,1.59s-2.85-.51-3.85-1.54c-1-1.03-1.53-2.32-1.58-3.89-1.51,1.75-3.55,3.25-6.11,4.48-2.57,1.24-5.27,1.86-8.11,1.86-4.17,0-7.94-1.07-11.32-3.22-3.38-2.14-6.05-5.12-8.02-8.92-1.96-3.8-2.94-8.12-2.94-12.95s.97-9.16,2.9-13c1.93-3.83,4.57-6.82,7.93-8.97,3.35-2.14,7.05-3.22,11.09-3.22,2.9,0,5.62.53,8.15,1.58,2.54,1.06,4.68,2.4,6.43,4.03v-.09c0-1.57.51-2.88,1.54-3.94,1.03-1.06,2.32-1.58,3.89-1.58s2.87.51,3.89,1.54ZM1257.58,162.71c2.48-2.87,3.71-6.48,3.71-10.82s-1.24-7.97-3.71-10.87c-2.48-2.9-5.68-4.35-9.6-4.35s-7.03,1.45-9.51,4.35c-2.48,2.9-3.71,6.52-3.71,10.87s1.22,7.96,3.67,10.82c2.45,2.87,5.63,4.3,9.55,4.3s7.12-1.43,9.6-4.3Z"/>
      <path class="cls-2" d="M1319.89,129.92c3.38,2.14,6.05,5.12,8.02,8.92,1.96,3.8,2.94,8.12,2.94,12.95s-.97,9.16-2.9,13c-1.93,3.84-4.57,6.82-7.92,8.97-3.35,2.14-7.05,3.22-11.09,3.22-2.9,0-5.63-.59-8.2-1.77-2.57-1.18-4.7-2.61-6.38-4.3v.54c0,1.57-.51,2.88-1.54,3.94-1.03,1.06-2.33,1.58-3.9,1.58s-2.87-.51-3.89-1.54c-1.03-1.03-1.54-2.36-1.54-3.99v-56.88c0-1.57.51-2.88,1.54-3.94,1.03-1.06,2.32-1.58,3.89-1.58s2.87.53,3.9,1.58c1.03,1.06,1.54,2.37,1.54,3.94v18.93c1.45-1.81,3.47-3.4,6.07-4.76,2.6-1.36,5.31-2.04,8.15-2.04,4.17,0,7.94,1.07,11.32,3.22ZM1316.72,162.66c2.47-2.9,3.71-6.52,3.71-10.87s-1.22-7.95-3.67-10.82c-2.45-2.87-5.63-4.3-9.55-4.3s-7.13,1.43-9.6,4.3c-2.48,2.87-3.71,6.48-3.71,10.82s1.24,7.97,3.71,10.87c2.47,2.9,5.67,4.35,9.6,4.35s7.03-1.45,9.51-4.35Z"/>
      <path class="cls-2" d="M1340.27,120.73c-.85-.66-1.27-1.84-1.27-3.53v-1.72c0-1.69.45-2.87,1.36-3.53.91-.66,2.35-1,4.35-1,2.11,0,3.59.33,4.44,1,.85.66,1.27,1.84,1.27,3.53v1.72c0,1.75-.44,2.94-1.31,3.58-.88.63-2.37.95-4.48.95s-3.5-.33-4.35-1ZM1348.6,174.48c-1.03,1.06-2.32,1.59-3.89,1.59s-2.87-.53-3.89-1.59c-1.03-1.06-1.54-2.37-1.54-3.94v-37.41c0-1.57.51-2.88,1.54-3.94,1.03-1.06,2.32-1.59,3.89-1.59s2.87.53,3.89,1.59c1.03,1.06,1.54,2.37,1.54,3.94v37.41c0,1.57-.51,2.88-1.54,3.94Z"/>
      <path class="cls-2" d="M1404.39,128.24c1.03,1.03,1.54,2.36,1.54,3.99v38.31c0,1.57-.51,2.88-1.54,3.94-1.03,1.06-2.33,1.59-3.89,1.59s-2.85-.51-3.85-1.54c-1-1.03-1.53-2.32-1.58-3.89-1.51,1.75-3.55,3.25-6.11,4.48-2.57,1.24-5.27,1.86-8.11,1.86-4.17,0-7.94-1.07-11.32-3.22-3.38-2.14-6.05-5.12-8.02-8.92-1.96-3.8-2.94-8.12-2.94-12.95s.97-9.16,2.9-13c1.93-3.83,4.57-6.82,7.93-8.97,3.35-2.14,7.05-3.22,11.09-3.22,2.9,0,5.62.53,8.15,1.58,2.54,1.06,4.68,2.4,6.43,4.03v-.09c0-1.57.51-2.88,1.54-3.94,1.03-1.06,2.32-1.58,3.89-1.58s2.87.51,3.89,1.54ZM1391.8,162.71c2.48-2.87,3.71-6.48,3.71-10.82s-1.24-7.97-3.71-10.87c-2.48-2.9-5.68-4.35-9.6-4.35s-7.03,1.45-9.51,4.35c-2.48,2.9-3.71,6.52-3.71,10.87s1.22,7.96,3.67,10.82c2.45,2.87,5.63,4.3,9.55,4.3s7.12-1.43,9.6-4.3Z"/>
      <circle class="cls-2" cx="1068.25" cy="249.46" r="8.28"/>
      <path class="cls-2" d="M1214.21,245.96c0-2.2,1.1-4.05,3.29-5.57,1.18-.76,2.41-1.14,3.68-1.14,1.77,0,3.46.8,5.07,2.41,2.53,2.62,5.17,4.56,7.92,5.83,2.74,1.27,6.06,1.9,9.95,1.9,6.59-.25,9.88-2.74,9.88-7.47,0-2.45-1.12-4.31-3.36-5.57-2.24-1.27-5.72-2.53-10.45-3.8-4.9-1.35-8.89-2.7-11.97-4.05-3.08-1.35-5.74-3.4-7.98-6.14-2.24-2.74-3.36-6.44-3.36-11.09,0-4.05,1.16-7.58,3.48-10.58,2.32-3,5.36-5.32,9.12-6.97,3.76-1.65,7.75-2.47,11.97-2.47s8.62.8,12.92,2.41c4.31,1.6,7.68,3.97,10.13,7.09,1.1,1.35,1.65,2.87,1.65,4.56,0,1.94-.8,3.55-2.41,4.81-1.18.93-2.53,1.39-4.05,1.39-1.86,0-3.38-.59-4.56-1.77-1.52-1.86-3.48-3.34-5.89-4.43s-5.13-1.65-8.17-1.65c-6.42,0-9.63,2.32-9.63,6.97,0,1.86.59,3.36,1.77,4.5,1.18,1.14,2.68,2.03,4.5,2.66,1.82.63,4.37,1.42,7.67,2.34,4.56,1.27,8.36,2.58,11.4,3.93,3.04,1.35,5.62,3.42,7.73,6.21,2.11,2.79,3.17,6.46,3.17,11.02,0,4.14-1.23,7.75-3.67,10.83-2.45,3.08-5.6,5.43-9.44,7.03-3.84,1.6-7.79,2.41-11.85,2.41-5.57,0-10.77-.93-15.58-2.79-4.81-1.86-8.74-4.85-11.78-8.99-.76-1.01-1.14-2.28-1.14-3.8Z"/>
      <path class="cls-2" d="M1275.27,203.23c-.9-.71-1.36-1.97-1.36-3.77v-1.84c0-1.81.48-3.06,1.45-3.77.97-.71,2.52-1.06,4.65-1.06,2.26,0,3.84.36,4.74,1.06.9.71,1.36,1.97,1.36,3.77v1.84c0,1.87-.47,3.15-1.4,3.82-.94.68-2.53,1.02-4.79,1.02s-3.74-.35-4.64-1.06ZM1284.17,260.66c-1.1,1.13-2.48,1.69-4.16,1.69s-3.07-.56-4.16-1.69c-1.1-1.13-1.64-2.53-1.64-4.21v-39.97c0-1.68.55-3.08,1.64-4.21,1.1-1.13,2.48-1.69,4.16-1.69s3.06.57,4.16,1.69c1.1,1.13,1.64,2.53,1.64,4.21v39.97c0,1.68-.55,3.08-1.64,4.21Z"/>
      <path class="cls-2" d="M1341.59,199.8v-1.66c0-.21,0-.42-.02-.61-.12-1.42-.68-2.62-1.64-3.62-1.1-1.14-2.5-1.71-4.18-1.71s-3.1.58-4.2,1.71c-.96,1-1.52,2.2-1.64,3.62,0,.19-.02.4-.02.61v.87c-1.75-1.96-4.06-3.6-6.93-4.98-2.85-1.36-5.95-2.05-9.25-2.05-4.5,0-8.57,1.15-12.24,3.46-3.67,2.31-6.56,5.53-8.68,9.66-2.12,4.13-3.17,8.8-3.17,13.99s1.07,9.85,3.22,13.94c2.15,4.09,5.09,7.29,8.82,9.6,3.74,2.31,7.89,3.46,12.44,3.46,3.32,0,6.42-.8,9.31-2.43,2.9-1.63,5.05-3.45,6.49-5.46v4.67c0,3.52-1.19,6.23-3.55,8.15-2.38,1.91-5.96,2.87-10.77,2.87-2.41,0-5.09-.58-8.05-1.71-2.96-1.14-4.57-1.73-4.83-1.8-.59-.19-1.21-.28-1.85-.28-1.1,0-2.13.37-3.08,1.12-.94.73-1.61,1.84-1.99,3.25-.19.59-.3,1.12-.3,1.57,0,2.4,1.59,4.29,4.79,5.65,1.42.65,3.85,1.29,7.26,1.94s6.09.98,8.05.98c7.54,0,13.75-1.91,18.66-5.7,4.92-3.8,7.36-9.67,7.36-17.6v-27.88M1326.23,230.74c-2.76,3.1-6.31,4.64-10.67,4.64s-7.91-1.54-10.63-4.64c-2.73-3.08-4.09-6.96-4.09-11.65s1.36-8.59,4.09-11.7c2.73-3.11,6.28-4.67,10.63-4.67s7.91,1.56,10.67,4.67c1.82,2.06,3.04,4.46,3.66,7.21v8.99c-.61,2.73-1.84,5.12-3.66,7.15Z"/>
      <line class="cls-12" x1="1059.97" y1="269.1" x2="1296.35" y2="269.1"/>
      <text class="cls-3" transform="translate(1070.38 294.26)"><tspan class="cls-11" x="0" y="0">c</tspan><tspan x="11.22" y="0">om</tspan><tspan class="cls-7" x="43.01" y="0">u</tspan><tspan x="54.9" y="0">nicação visu</tspan><tspan class="cls-9" x="178.41" y="0">a</tspan><tspan x="191.18" y="0">l</tspan></text>
    </g>
    <text class="cls-6" transform="translate(1866.14 200.46)"><tspan class="cls-8" x="0" y="0">a</tspan><tspan class="cls-5" x="22.14" y="0">nnabiab</tspan></text>
    <path id="Path_2520" data-name="Path 2520" class="cls-2" d="M1841.73,197.42h-4.27v-6.29c0-1.5-.03-3.43-1.98-3.43s-2.29,1.63-2.29,3.32v6.4h-3.8v-12.82h3.8v1.42h.05c.78-1.37,2.21-2.19,3.75-2.13,4.01,0,4.75,2.73,4.75,6.29v7.24ZM1824.72,182.57c-1.29,0-2.33-1.04-2.33-2.33s1.04-2.33,2.33-2.33,2.33,1.04,2.33,2.33c0,1.29-1.04,2.33-2.33,2.33h0M1826.53,197.42h-3.8v-12.82h3.8v12.82ZM1844.11,174.14h-23.18c-1.09-.01-1.98.86-2,1.95v23.17c.01,1.09.91,1.97,2,1.95h23.07c1.09.01,1.99-.86,2.01-1.95v-23.17c-.02-1.09-.91-1.97-2.01-1.95"/>
    <text class="cls-6" transform="translate(1866.14 238.81)"><tspan class="cls-8" x="0" y="0">a</tspan><tspan class="cls-5" x="22.14" y="0">nnabiab_</tspan></text>
    <g>
      <path class="cls-2" d="M1830.56,222.3c0-1.19-.92-1.47-1.94-1.47h-2.66v3.01h2.87c1.01,0,1.73-.44,1.73-1.54Z"/>
      <path class="cls-2" d="M1838.01,224.27c-1.13,0-1.88.7-1.95,1.83h3.83c-.1-1.14-.7-1.83-1.88-1.83Z"/>
      <path class="cls-2" d="M1828.58,226.1h-2.62v3.01h2.56c.98,0,1.77-.35,1.77-1.44,0-1.12-.67-1.56-1.72-1.56Z"/>
      <path class="cls-2" d="M1841.38,211.81h-18.05c-2.7,0-4.89,2.19-4.89,4.89v17.3c0,2.7,2.19,4.89,4.89,4.89h18.05c2.7,0,4.89-2.19,4.89-4.89v-17.3c0-2.7-2.19-4.89-4.89-4.89ZM1835.74,220.08h4.51v1.5h-4.51v-1.68.18ZM1828.79,231.36h-5.83v-12.03h5.67c2.06,0,3.85.58,3.85,2.98,0,1.21-.56,1.8-1.64,2.32,1.48.42,2.19,1.72,2.19,3.23,0,2.44-2.05,3.49-4.24,3.5ZM1842.23,227.6h-6.17c0,1.16.72,1.97,2.1,1.97.71,0,1.63-.38,1.86-1.22h2.08c-.64,2.07-1.97,2.98-4.01,2.98-2.7,0-4.38-1.83-4.38-4.5s1.77-4.53,4.38-4.53,4.16,2.11,4.16,4.65c0,.15-.01.3-.02.65Z"/>
    </g>
    <text class="cls-6" transform="translate(1866.14 277.17)"><tspan x="0" y="0">abbarbosa</tspan></text>
    <g>
      <path class="cls-1" d="M1831.02,250.11c-6.95.34-12.69,5.97-13.16,12.91-.44,6.54,3.66,12.19,9.46,14.12.69.13.95-.3.95-.67,0-.33-.01-1.42-.02-2.58-3.86.84-4.68-1.64-4.68-1.64-.63-1.6-1.54-2.03-1.54-2.03-1.26-.86.09-.84.09-.84,1.39.1,2.13,1.43,2.13,1.43,1.24,2.12,3.25,1.51,4.04,1.15.12-.9.48-1.51.88-1.86-3.08-.35-6.32-1.54-6.32-6.86,0-1.52.54-2.75,1.43-3.73-.14-.35-.62-1.76.13-3.67,0,0,1.17-.37,3.82,1.42,1.11-.31,2.29-.46,3.47-.47,1.18,0,2.37.16,3.48.47,2.65-1.8,3.81-1.42,3.81-1.42.76,1.91.28,3.32.14,3.67.89.97,1.43,2.21,1.43,3.73,0,5.33-3.25,6.5-6.34,6.85.5.43.94,1.28.94,2.57,0,1.86-.02,3.35-.02,3.81,0,.37.25.8.95.67,5.51-1.84,9.48-7.04,9.48-13.17,0-7.89-6.59-14.25-14.57-13.86Z"/>
      <path class="cls-2" d="M1822.88,270.02c-.03.07-.14.09-.24.04-.1-.05-.16-.14-.12-.21.03-.07.14-.09.24-.04.1.04.16.14.12.21h0Z"/>
      <path class="cls-2" d="M1823.44,270.65c-.07.06-.2.03-.28-.06-.09-.1-.11-.23-.04-.29.07-.06.19-.03.28.06.09.1.11.22.04.29h0Z"/>
      <path class="cls-2" d="M1823.99,271.45c-.09.06-.22,0-.31-.12-.09-.12-.09-.27,0-.33.09-.06.22,0,.31.12.08.12.08.27,0,.33h0Z"/>
      <path class="cls-2" d="M1824.74,272.22c-.08.08-.24.06-.36-.05-.12-.11-.15-.27-.08-.36.08-.08.24-.06.36.05.12.11.16.27.08.36h0Z"/>
      <path class="cls-2" d="M1825.77,272.67c-.03.11-.19.16-.35.11-.16-.05-.26-.17-.23-.28.03-.11.19-.16.35-.11.16.05.26.17.23.28h0Z"/>
      <path class="cls-2" d="M1826.91,272.75c0,.11-.13.21-.29.21-.17,0-.3-.09-.3-.2,0-.12.13-.21.3-.21s.3.09.3.2h0Z"/>
      <path class="cls-2" d="M1827.97,272.57c.02.11-.09.23-.26.26-.16.03-.31-.04-.33-.15-.02-.11.1-.23.26-.26.16-.03.31.04.33.15h0Z"/>
    </g>
    <text class="cls-6" transform="translate(1866.14 162.1)"><tspan class="cls-8" x="0" y="0">a</tspan><tspan class="cls-5" x="22.14" y="0">nnabia</tspan><tspan class="cls-8" x="145.93" y="0">.</tspan><tspan class="cls-10" x="153.92" y="0">d</tspan><tspan x="177.37" y="0">esign</tspan></text>
    <g>
      <path class="cls-2" d="M1830.07,139.34c3.71,0,4.15.01,5.61.08,1.51.07,3.07.41,4.17,1.52,1.11,1.11,1.45,2.66,1.52,4.17.07,1.46.08,1.9.08,5.61s-.01,4.15-.08,5.61c-.07,1.51-.42,3.08-1.52,4.17-1.11,1.11-2.66,1.45-4.17,1.52-1.46.07-1.9.08-5.61.08s-4.15-.01-5.61-.08c-1.49-.07-3.09-.43-4.17-1.52-1.11-1.11-1.45-2.67-1.52-4.17-.07-1.46-.08-1.9-.08-5.61s.01-4.15.08-5.61c.07-1.5.42-3.08,1.52-4.17,1.11-1.11,2.66-1.45,4.17-1.52,1.46-.07,1.9-.08,5.61-.08M1830.07,136.84c-3.77,0-4.24.02-5.72.08-2.15.1-4.28.7-5.83,2.25-1.56,1.56-2.15,3.68-2.25,5.83-.07,1.48-.08,1.95-.08,5.72s.02,4.24.08,5.72c.1,2.14.7,4.28,2.25,5.83,1.56,1.56,3.69,2.15,5.83,2.25,1.48.07,1.95.08,5.72.08s4.24-.02,5.72-.08c2.14-.1,4.28-.7,5.83-2.25s2.15-3.68,2.25-5.83c.07-1.48.08-1.95.08-5.72s-.02-4.24-.08-5.72c-.1-2.15-.7-4.28-2.25-5.83-1.55-1.55-3.69-2.15-5.83-2.25-1.48-.07-1.95-.08-5.72-.08Z"/>
      <path class="cls-2" d="M1830.07,143.6c-3.94,0-7.13,3.19-7.13,7.13s3.19,7.13,7.13,7.13,7.13-3.19,7.13-7.13-3.19-7.13-7.13-7.13ZM1830.07,155.35c-2.56,0-4.63-2.07-4.63-4.63s2.07-4.63,4.63-4.63,4.63,2.07,4.63,4.63-2.07,4.63-4.63,4.63Z"/>
      <circle class="cls-2" cx="1837.48" cy="143.31" r="1.67"/>
    </g>
    <line class="cls-12" x1="1535.88" y1="78.45" x2="1535.88" y2="333.27"/>
  </g>
</svg>