<?xml version="1.0" encoding="UTF-8"?>
<svg id="Camada_1" data-name="Camada 1" xmlns="http://www.w3.org/2000/svg" viewBox="0 0 3200 410.86">
  <defs>
    <style>
      .cls-1 {
        fill-rule: evenodd;
      }

      .cls-1, .cls-2, .cls-3 {
        fill: #7877df;
      }

      .cls-1, .cls-2, .cls-4 {
        stroke-width: 0px;
      }

      .cls-5 {
        letter-spacing: 0em;
      }

      .cls-6 {
        fill: #fff;
        font-size: 36.36px;
      }

      .cls-6, .cls-3 {
        font-family: QuicksandBook-Regular, Quicksand;
      }

      .cls-7 {
        letter-spacing: -.02em;
      }

      .cls-3 {
        font-size: 20.18px;
      }

      .cls-4 {
        fill: #2d2d2d;
      }

      .cls-8 {
        letter-spacing: 0em;
      }

      .cls-9 {
        letter-spacing: .01em;
      }

      .cls-10 {
        letter-spacing: -.01em;
      }

      .cls-11 {
        letter-spacing: -.02em;
      }

      .cls-12 {
        fill: none;
        stroke: #7877df;
        stroke-linecap: round;
        stroke-miterlimit: 10;
      }
    </style>
  </defs>
  <rect class="cls-4" width="3200" height="410.86"/>
  <g>
    <path class="cls-2" d="M707.73,186.48c1.17,1.17,1.75,2.68,1.75,4.53v63.65c0,1.79-.58,3.28-1.75,4.48-1.17,1.2-2.64,1.8-4.43,1.8s-3.24-.58-4.38-1.75c-1.13-1.17-1.73-2.64-1.8-4.43-1.72,1.99-4.03,3.69-6.95,5.1-2.92,1.41-5.99,2.11-9.22,2.11-4.74,0-9.03-1.22-12.87-3.66-3.85-2.44-6.88-5.82-9.11-10.14-2.23-4.33-3.35-9.23-3.35-14.73s1.1-10.42,3.3-14.78c2.2-4.36,5.2-7.76,9.01-10.2,3.81-2.44,8.02-3.66,12.62-3.66,3.3,0,6.39.6,9.27,1.8,2.88,1.2,5.32,2.73,7.31,4.58v-20.19c0-1.78.58-3.28,1.75-4.48,1.17-1.2,2.64-1.8,4.43-1.8s3.26.58,4.43,1.75ZM693.42,245.75c2.81-3.26,4.22-7.36,4.22-12.31s-1.41-9.06-4.22-12.36c-2.82-3.3-6.45-4.94-10.92-4.94s-8,1.65-10.81,4.94c-2.82,3.3-4.22,7.42-4.22,12.36s1.39,9.05,4.17,12.31c2.78,3.26,6.4,4.89,10.87,4.89s8.1-1.63,10.92-4.89Z"/>
    <path class="cls-2" d="M774.82,231.1c-1.45,1.21-3.15,1.82-5.09,1.82h-39.97c.97,4.76,3.19,8.5,6.66,11.2,3.47,2.71,7.39,4.06,11.75,4.06,3.31,0,5.89-.3,7.75-.91s3.33-1.25,4.42-1.94c1.09-.69,1.84-1.15,2.24-1.39,1.45-.73,2.83-1.09,4.12-1.09,1.7,0,3.15.61,4.36,1.82,1.21,1.21,1.82,2.62,1.82,4.24,0,2.18-1.13,4.16-3.39,5.94-2.26,1.86-5.29,3.43-9.08,4.72-3.8,1.29-7.63,1.94-11.51,1.94-6.78,0-12.7-1.41-17.74-4.24-5.05-2.83-8.94-6.72-11.69-11.69-2.75-4.97-4.12-10.56-4.12-16.78,0-6.94,1.45-13.04,4.36-18.29,2.91-5.25,6.74-9.27,11.51-12.05,4.76-2.79,9.85-4.18,15.26-4.18s10.36,1.45,15.08,4.36c4.72,2.91,8.5,6.83,11.33,11.75,2.83,4.93,4.24,10.26,4.24,15.99-.08,1.94-.85,3.51-2.3,4.72ZM729.88,220.8h31.73v-.85c-.32-3.39-1.98-6.3-4.97-8.72-2.99-2.42-6.38-3.63-10.17-3.63-9.37,0-14.9,4.4-16.59,13.2Z"/>
    <path class="cls-2" d="M675.96,131.29c1.03,1.03,1.54,2.36,1.54,3.99v38.31c0,1.57-.51,2.88-1.54,3.94-1.03,1.06-2.33,1.59-3.89,1.59s-2.85-.51-3.85-1.54c-1-1.03-1.53-2.32-1.58-3.89-1.51,1.75-3.55,3.25-6.11,4.48-2.57,1.24-5.27,1.86-8.11,1.86-4.17,0-7.94-1.07-11.32-3.22-3.38-2.14-6.05-5.12-8.02-8.92-1.96-3.8-2.94-8.12-2.94-12.95s.97-9.16,2.9-13c1.93-3.83,4.57-6.82,7.93-8.97,3.35-2.14,7.05-3.22,11.09-3.22,2.9,0,5.62.53,8.15,1.58,2.54,1.06,4.68,2.4,6.43,4.03v-.09c0-1.57.51-2.88,1.54-3.94,1.03-1.06,2.32-1.58,3.89-1.58s2.87.51,3.89,1.54ZM663.37,165.76c2.48-2.87,3.71-6.48,3.71-10.82s-1.24-7.97-3.71-10.87c-2.48-2.9-5.68-4.35-9.6-4.35s-7.03,1.45-9.51,4.35c-2.48,2.9-3.71,6.52-3.71,10.87s1.22,7.96,3.67,10.82c2.45,2.87,5.63,4.3,9.55,4.3s7.12-1.43,9.6-4.3Z"/>
    <path class="cls-2" d="M727.95,135.23c2.35,3.65,3.53,8.71,3.53,15.17v23.19c0,1.57-.51,2.88-1.54,3.94-1.03,1.06-2.33,1.59-3.89,1.59s-2.87-.53-3.89-1.59c-1.03-1.06-1.54-2.37-1.54-3.94v-23.19c0-3.32-.7-5.93-2.08-7.83-1.39-1.9-3.77-2.85-7.16-2.85s-6.25,1.01-8.24,3.03c-1.99,2.02-2.99,4.57-2.99,7.65v23.19c0,1.57-.51,2.88-1.54,3.94-1.03,1.06-2.33,1.59-3.89,1.59s-2.87-.53-3.89-1.59c-1.03-1.06-1.54-2.37-1.54-3.94v-37.41c0-1.57.51-2.88,1.54-3.94,1.03-1.06,2.32-1.59,3.89-1.59s2.87.53,3.89,1.59c1.03,1.06,1.54,2.37,1.54,3.94v1.54c1.63-2.17,3.76-4.04,6.39-5.62,2.63-1.57,5.51-2.35,8.65-2.35,6.16,0,10.42,1.83,12.77,5.48Z"/>
    <path class="cls-2" d="M956.72,201.6c2.35,3.65,3.53,8.71,3.53,15.17v23.19c0,1.57-.51,2.88-1.54,3.94-1.03,1.06-2.33,1.59-3.89,1.59s-2.87-.53-3.89-1.59c-1.03-1.06-1.54-2.37-1.54-3.94v-23.19c0-3.32-.7-5.93-2.08-7.83-1.39-1.9-3.77-2.85-7.16-2.85s-6.25,1.01-8.24,3.03c-1.99,2.02-2.99,4.57-2.99,7.65v23.19c0,1.57-.51,2.88-1.54,3.94-1.03,1.06-2.33,1.59-3.89,1.59s-2.87-.53-3.89-1.59c-1.03-1.06-1.54-2.37-1.54-3.94v-37.41c0-1.57.51-2.88,1.54-3.94,1.03-1.06,2.32-1.59,3.89-1.59s2.87.53,3.89,1.59c1.03,1.06,1.54,2.37,1.54,3.94v1.54c1.63-2.17,3.76-4.04,6.39-5.62,2.63-1.57,5.51-2.35,8.65-2.35,6.16,0,10.42,1.83,12.77,5.48Z"/>
    <path class="cls-2" d="M781.93,135.23c2.35,3.65,3.53,8.71,3.53,15.17v23.19c0,1.57-.51,2.88-1.54,3.94-1.03,1.06-2.33,1.59-3.89,1.59s-2.87-.53-3.89-1.59c-1.03-1.06-1.54-2.37-1.54-3.94v-23.19c0-3.32-.7-5.93-2.08-7.83-1.39-1.9-3.77-2.85-7.16-2.85s-6.25,1.01-8.24,3.03c-1.99,2.02-2.99,4.57-2.99,7.65v23.19c0,1.57-.51,2.88-1.54,3.94-1.03,1.06-2.33,1.59-3.89,1.59s-2.87-.53-3.89-1.59c-1.03-1.06-1.54-2.37-1.54-3.94v-37.41c0-1.57.51-2.88,1.54-3.94,1.03-1.06,2.32-1.59,3.89-1.59s2.87.53,3.89,1.59c1.03,1.06,1.54,2.37,1.54,3.94v1.54c1.63-2.17,3.76-4.04,6.39-5.62,2.63-1.57,5.51-2.35,8.65-2.35,6.16,0,10.42,1.83,12.77,5.48Z"/>
    <path class="cls-2" d="M840.34,131.29c1.03,1.03,1.54,2.36,1.54,3.99v38.31c0,1.57-.51,2.88-1.54,3.94-1.03,1.06-2.33,1.59-3.89,1.59s-2.85-.51-3.85-1.54c-1-1.03-1.53-2.32-1.58-3.89-1.51,1.75-3.55,3.25-6.11,4.48-2.57,1.24-5.27,1.86-8.11,1.86-4.17,0-7.94-1.07-11.32-3.22-3.38-2.14-6.05-5.12-8.02-8.92-1.96-3.8-2.94-8.12-2.94-12.95s.97-9.16,2.9-13c1.93-3.83,4.57-6.82,7.93-8.97,3.35-2.14,7.05-3.22,11.09-3.22,2.9,0,5.62.53,8.15,1.58,2.54,1.06,4.68,2.4,6.43,4.03v-.09c0-1.57.51-2.88,1.54-3.94,1.03-1.06,2.32-1.58,3.89-1.58s2.87.51,3.89,1.54ZM827.75,165.76c2.48-2.87,3.71-6.48,3.71-10.82s-1.24-7.97-3.71-10.87c-2.48-2.9-5.68-4.35-9.6-4.35s-7.03,1.45-9.51,4.35c-2.48,2.9-3.71,6.52-3.71,10.87s1.22,7.96,3.67,10.82c2.45,2.87,5.63,4.3,9.55,4.3s7.12-1.43,9.6-4.3Z"/>
    <path class="cls-2" d="M890.06,132.97c3.38,2.14,6.05,5.12,8.02,8.92,1.96,3.8,2.94,8.12,2.94,12.95s-.97,9.16-2.9,13c-1.93,3.84-4.57,6.82-7.92,8.97-3.35,2.14-7.05,3.22-11.09,3.22-2.9,0-5.63-.59-8.2-1.77-2.57-1.18-4.7-2.61-6.38-4.3v.54c0,1.57-.51,2.88-1.54,3.94-1.03,1.06-2.33,1.58-3.9,1.58s-2.87-.51-3.89-1.54c-1.03-1.03-1.54-2.36-1.54-3.99v-56.88c0-1.57.51-2.88,1.54-3.94,1.03-1.06,2.32-1.58,3.89-1.58s2.87.53,3.9,1.58c1.03,1.06,1.54,2.37,1.54,3.94v18.93c1.45-1.81,3.47-3.4,6.07-4.76,2.6-1.36,5.31-2.04,8.15-2.04,4.17,0,7.94,1.07,11.32,3.22ZM886.89,165.71c2.47-2.9,3.71-6.52,3.71-10.87s-1.22-7.95-3.67-10.82c-2.45-2.87-5.63-4.3-9.55-4.3s-7.13,1.43-9.6,4.3c-2.48,2.87-3.71,6.48-3.71,10.82s1.24,7.97,3.71,10.87c2.47,2.9,5.67,4.35,9.6,4.35s7.03-1.45,9.51-4.35Z"/>
    <path class="cls-2" d="M910.44,123.78c-.85-.66-1.27-1.84-1.27-3.53v-1.72c0-1.69.45-2.87,1.36-3.53.91-.66,2.35-1,4.35-1,2.11,0,3.59.33,4.44,1,.85.66,1.27,1.84,1.27,3.53v1.72c0,1.75-.44,2.94-1.31,3.58-.88.63-2.37.95-4.48.95s-3.5-.33-4.35-1ZM918.77,177.53c-1.03,1.06-2.32,1.59-3.89,1.59s-2.87-.53-3.89-1.59c-1.03-1.06-1.54-2.37-1.54-3.94v-37.41c0-1.57.51-2.88,1.54-3.94,1.03-1.06,2.32-1.59,3.89-1.59s2.87.53,3.89,1.59c1.03,1.06,1.54,2.37,1.54,3.94v37.41c0,1.57-.51,2.88-1.54,3.94Z"/>
    <path class="cls-2" d="M974.56,131.29c1.03,1.03,1.54,2.36,1.54,3.99v38.31c0,1.57-.51,2.88-1.54,3.94-1.03,1.06-2.33,1.59-3.89,1.59s-2.85-.51-3.85-1.54c-1-1.03-1.53-2.32-1.58-3.89-1.51,1.75-3.55,3.25-6.11,4.48-2.57,1.24-5.27,1.86-8.11,1.86-4.17,0-7.94-1.07-11.32-3.22-3.38-2.14-6.05-5.12-8.02-8.92-1.96-3.8-2.94-8.12-2.94-12.95s.97-9.16,2.9-13c1.93-3.83,4.57-6.82,7.93-8.97,3.35-2.14,7.05-3.22,11.09-3.22,2.9,0,5.62.53,8.15,1.58,2.54,1.06,4.68,2.4,6.43,4.03v-.09c0-1.57.51-2.88,1.54-3.94,1.03-1.06,2.32-1.58,3.89-1.58s2.87.51,3.89,1.54ZM961.97,165.76c2.48-2.87,3.71-6.48,3.71-10.82s-1.24-7.97-3.71-10.87c-2.48-2.9-5.68-4.35-9.6-4.35s-7.03,1.45-9.51,4.35c-2.48,2.9-3.71,6.52-3.71,10.87s1.22,7.96,3.67,10.82c2.45,2.87,5.63,4.3,9.55,4.3s7.12-1.43,9.6-4.3Z"/>
    <circle class="cls-2" cx="638.42" cy="252.51" r="8.28"/>
    <path class="cls-2" d="M784.38,249.01c0-2.2,1.1-4.05,3.29-5.57,1.18-.76,2.41-1.14,3.68-1.14,1.77,0,3.46.8,5.07,2.41,2.53,2.62,5.17,4.56,7.92,5.83,2.74,1.27,6.06,1.9,9.95,1.9,6.59-.25,9.88-2.74,9.88-7.47,0-2.45-1.12-4.31-3.36-5.57-2.24-1.27-5.72-2.53-10.45-3.8-4.9-1.35-8.89-2.7-11.97-4.05-3.08-1.35-5.74-3.4-7.98-6.14-2.24-2.74-3.36-6.44-3.36-11.09,0-4.05,1.16-7.58,3.48-10.58,2.32-3,5.36-5.32,9.12-6.97,3.76-1.65,7.75-2.47,11.97-2.47s8.62.8,12.92,2.41c4.31,1.6,7.68,3.97,10.13,7.09,1.1,1.35,1.65,2.87,1.65,4.56,0,1.94-.8,3.55-2.41,4.81-1.18.93-2.53,1.39-4.05,1.39-1.86,0-3.38-.59-4.56-1.77-1.52-1.86-3.48-3.34-5.89-4.43s-5.13-1.65-8.17-1.65c-6.42,0-9.63,2.32-9.63,6.97,0,1.86.59,3.36,1.77,4.5,1.18,1.14,2.68,2.03,4.5,2.66,1.82.63,4.37,1.42,7.67,2.34,4.56,1.27,8.36,2.58,11.4,3.93,3.04,1.35,5.62,3.42,7.73,6.21,2.11,2.79,3.17,6.46,3.17,11.02,0,4.14-1.23,7.75-3.67,10.83-2.45,3.08-5.6,5.43-9.44,7.03-3.84,1.6-7.79,2.41-11.85,2.41-5.57,0-10.77-.93-15.58-2.79-4.81-1.86-8.74-4.85-11.78-8.99-.76-1.01-1.14-2.28-1.14-3.8Z"/>
    <path class="cls-2" d="M845.44,206.27c-.9-.71-1.36-1.97-1.36-3.77v-1.84c0-1.81.48-3.06,1.45-3.77.97-.71,2.52-1.06,4.65-1.06,2.26,0,3.84.36,4.74,1.06.9.71,1.36,1.97,1.36,3.77v1.84c0,1.87-.47,3.15-1.4,3.82-.94.68-2.53,1.02-4.79,1.02s-3.74-.35-4.64-1.06ZM854.34,263.71c-1.1,1.13-2.48,1.69-4.16,1.69s-3.07-.56-4.16-1.69c-1.1-1.13-1.64-2.53-1.64-4.21v-39.97c0-1.68.55-3.08,1.64-4.21,1.1-1.13,2.48-1.69,4.16-1.69s3.06.57,4.16,1.69c1.1,1.13,1.64,2.53,1.64,4.21v39.97c0,1.68-.55,3.08-1.64,4.21Z"/>
    <path class="cls-2" d="M911.76,202.85v-1.66c0-.21,0-.42-.02-.61-.12-1.42-.68-2.62-1.64-3.62-1.1-1.14-2.5-1.71-4.18-1.71s-3.1.58-4.2,1.71c-.96,1-1.52,2.2-1.64,3.62,0,.19-.02.4-.02.61v.87c-1.75-1.96-4.06-3.6-6.93-4.98-2.85-1.36-5.95-2.05-9.25-2.05-4.5,0-8.57,1.15-12.24,3.46-3.67,2.31-6.56,5.53-8.68,9.66-2.12,4.13-3.17,8.8-3.17,13.99s1.07,9.85,3.22,13.94c2.15,4.09,5.09,7.29,8.82,9.6,3.74,2.31,7.89,3.46,12.44,3.46,3.32,0,6.42-.8,9.31-2.43,2.9-1.63,5.05-3.45,6.49-5.46v4.67c0,3.52-1.19,6.23-3.55,8.15-2.38,1.91-5.96,2.87-10.77,2.87-2.41,0-5.09-.58-8.05-1.71-2.96-1.14-4.57-1.73-4.83-1.8-.59-.19-1.21-.28-1.85-.28-1.1,0-2.13.37-3.08,1.12-.94.73-1.61,1.84-1.99,3.25-.19.59-.3,1.12-.3,1.57,0,2.4,1.59,4.29,4.79,5.65,1.42.65,3.85,1.29,7.26,1.94s6.09.98,8.05.98c7.54,0,13.75-1.91,18.66-5.7,4.92-3.8,7.36-9.67,7.36-17.6v-27.88M896.4,233.79c-2.76,3.1-6.31,4.64-10.67,4.64s-7.91-1.54-10.63-4.64c-2.73-3.08-4.09-6.96-4.09-11.65s1.36-8.59,4.09-11.7c2.73-3.11,6.28-4.67,10.63-4.67s7.91,1.56,10.67,4.67c1.82,2.06,3.04,4.46,3.66,7.21v8.99c-.61,2.73-1.84,5.12-3.66,7.15Z"/>
    <line class="cls-12" x1="630.14" y1="272.14" x2="866.52" y2="272.14"/>
    <text class="cls-3" transform="translate(640.55 297.31)"><tspan class="cls-11" x="0" y="0">c</tspan><tspan x="11.22" y="0">om</tspan><tspan class="cls-7" x="43.01" y="0">u</tspan><tspan x="54.9" y="0">nicação visu</tspan><tspan class="cls-9" x="178.41" y="0">a</tspan><tspan x="191.18" y="0">l</tspan></text>
  </g>
  <text class="cls-6" transform="translate(1436.31 203.51)"><tspan class="cls-8" x="0" y="0">a</tspan><tspan class="cls-5" x="22.14" y="0">nnabiab</tspan></text>
  <path id="Path_2520" data-name="Path 2520" class="cls-2" d="M1411.9,200.47h-4.27v-6.29c0-1.5-.03-3.43-1.98-3.43s-2.29,1.63-2.29,3.32v6.4h-3.8v-12.82h3.8v1.42h.05c.78-1.37,2.21-2.19,3.75-2.13,4.01,0,4.75,2.73,4.75,6.29v7.24ZM1394.89,185.62c-1.29,0-2.33-1.04-2.33-2.33s1.04-2.33,2.33-2.33,2.33,1.04,2.33,2.33c0,1.29-1.04,2.33-2.33,2.33h0M1396.7,200.47h-3.8v-12.82h3.8v12.82ZM1414.28,177.19h-23.18c-1.09-.01-1.98.86-2,1.95v23.17c.01,1.09.91,1.97,2,1.95h23.07c1.09.01,1.99-.86,2.01-1.95v-23.17c-.02-1.09-.91-1.97-2.01-1.95"/>
  <text class="cls-6" transform="translate(1436.31 241.86)"><tspan class="cls-8" x="0" y="0">a</tspan><tspan class="cls-5" x="22.14" y="0">nnabiab_</tspan></text>
  <g>
    <path class="cls-2" d="M1400.73,225.35c0-1.19-.92-1.47-1.94-1.47h-2.66v3.01h2.87c1.01,0,1.73-.44,1.73-1.54Z"/>
    <path class="cls-2" d="M1408.18,227.31c-1.13,0-1.88.7-1.95,1.83h3.83c-.1-1.14-.7-1.83-1.88-1.83Z"/>
    <path class="cls-2" d="M1398.75,229.14h-2.62v3.01h2.56c.98,0,1.77-.35,1.77-1.44,0-1.12-.67-1.56-1.72-1.56Z"/>
    <path class="cls-2" d="M1411.55,214.86h-18.05c-2.7,0-4.89,2.19-4.89,4.89v17.3c0,2.7,2.19,4.89,4.89,4.89h18.05c2.7,0,4.89-2.19,4.89-4.89v-17.3c0-2.7-2.19-4.89-4.89-4.89ZM1405.91,223.13h4.51v1.5h-4.51v-1.68.18ZM1398.96,234.41h-5.83v-12.03h5.67c2.06,0,3.85.58,3.85,2.98,0,1.21-.56,1.8-1.64,2.32,1.48.42,2.19,1.72,2.19,3.23,0,2.44-2.05,3.49-4.24,3.5ZM1412.4,230.65h-6.17c0,1.16.72,1.97,2.1,1.97.71,0,1.63-.38,1.86-1.22h2.08c-.64,2.07-1.97,2.98-4.01,2.98-2.7,0-4.38-1.83-4.38-4.5s1.77-4.53,4.38-4.53,4.16,2.11,4.16,4.65c0,.15-.01.3-.02.65Z"/>
  </g>
  <text class="cls-6" transform="translate(1436.31 280.21)"><tspan x="0" y="0">abbarbosa</tspan></text>
  <g>
    <path class="cls-1" d="M1401.19,253.16c-6.95.34-12.69,5.97-13.16,12.91-.44,6.54,3.66,12.19,9.46,14.12.69.13.95-.3.95-.67,0-.33-.01-1.42-.02-2.58-3.86.84-4.68-1.64-4.68-1.64-.63-1.6-1.54-2.03-1.54-2.03-1.26-.86.09-.84.09-.84,1.39.1,2.13,1.43,2.13,1.43,1.24,2.12,3.25,1.51,4.04,1.15.12-.9.48-1.51.88-1.86-3.08-.35-6.32-1.54-6.32-6.86,0-1.52.54-2.75,1.43-3.73-.14-.35-.62-1.76.13-3.67,0,0,1.17-.37,3.82,1.42,1.11-.31,2.29-.46,3.47-.47,1.18,0,2.37.16,3.48.47,2.65-1.8,3.81-1.42,3.81-1.42.76,1.91.28,3.32.14,3.67.89.97,1.43,2.21,1.43,3.73,0,5.33-3.25,6.5-6.34,6.85.5.43.94,1.28.94,2.57,0,1.86-.02,3.35-.02,3.81,0,.37.25.8.95.67,5.51-1.84,9.48-7.04,9.48-13.17,0-7.89-6.59-14.25-14.57-13.86Z"/>
    <path class="cls-2" d="M1393.05,273.07c-.03.07-.14.09-.24.04-.1-.05-.16-.14-.12-.21.03-.07.14-.09.24-.04.1.04.16.14.12.21h0Z"/>
    <path class="cls-2" d="M1393.61,273.7c-.07.06-.2.03-.28-.06-.09-.1-.11-.23-.04-.29.07-.06.19-.03.28.06.09.1.11.22.04.29h0Z"/>
    <path class="cls-2" d="M1394.16,274.5c-.09.06-.22,0-.31-.12-.09-.12-.09-.27,0-.33.09-.06.22,0,.31.12.08.12.08.27,0,.33h0Z"/>
    <path class="cls-2" d="M1394.91,275.27c-.08.08-.24.06-.36-.05-.12-.11-.15-.27-.08-.36.08-.08.24-.06.36.05.12.11.16.27.08.36h0Z"/>
    <path class="cls-2" d="M1395.94,275.72c-.03.11-.19.16-.35.11-.16-.05-.26-.17-.23-.28.03-.11.19-.16.35-.11.16.05.26.17.23.28h0Z"/>
    <path class="cls-2" d="M1397.08,275.8c0,.11-.13.21-.29.21-.17,0-.3-.09-.3-.2,0-.12.13-.21.3-.21s.3.09.3.2h0Z"/>
    <path class="cls-2" d="M1398.14,275.62c.02.11-.09.23-.26.26-.16.03-.31-.04-.33-.15-.02-.11.1-.23.26-.26.16-.03.31.04.33.15h0Z"/>
  </g>
  <text class="cls-6" transform="translate(1436.31 165.15)"><tspan class="cls-8" x="0" y="0">a</tspan><tspan class="cls-5" x="22.14" y="0">nnabia</tspan><tspan class="cls-8" x="145.93" y="0">.</tspan><tspan class="cls-10" x="153.92" y="0">d</tspan><tspan x="177.37" y="0">esign</tspan></text>
  <g>
    <path class="cls-2" d="M1400.24,142.39c3.71,0,4.15.01,5.61.08,1.51.07,3.07.41,4.17,1.52,1.11,1.11,1.45,2.66,1.52,4.17.07,1.46.08,1.9.08,5.61s-.01,4.15-.08,5.61c-.07,1.51-.42,3.08-1.52,4.17-1.11,1.11-2.66,1.45-4.17,1.52-1.46.07-1.9.08-5.61.08s-4.15-.01-5.61-.08c-1.49-.07-3.09-.43-4.17-1.52-1.11-1.11-1.45-2.67-1.52-4.17-.07-1.46-.08-1.9-.08-5.61s.01-4.15.08-5.61c.07-1.5.42-3.08,1.52-4.17,1.11-1.11,2.66-1.45,4.17-1.52,1.46-.07,1.9-.08,5.61-.08M1400.24,139.89c-3.77,0-4.24.02-5.72.08-2.15.1-4.28.7-5.83,2.25-1.56,1.56-2.15,3.68-2.25,5.83-.07,1.48-.08,1.95-.08,5.72s.02,4.24.08,5.72c.1,2.14.7,4.28,2.25,5.83,1.56,1.56,3.69,2.15,5.83,2.25,1.48.07,1.95.08,5.72.08s4.24-.02,5.72-.08c2.14-.1,4.28-.7,5.83-2.25s2.15-3.68,2.25-5.83c.07-1.48.08-1.95.08-5.72s-.02-4.24-.08-5.72c-.1-2.15-.7-4.28-2.25-5.83-1.55-1.55-3.69-2.15-5.83-2.25-1.48-.07-1.95-.08-5.72-.08Z"/>
    <path class="cls-2" d="M1400.24,146.64c-3.94,0-7.13,3.19-7.13,7.13s3.19,7.13,7.13,7.13,7.13-3.19,7.13-7.13-3.19-7.13-7.13-7.13ZM1400.24,158.4c-2.56,0-4.63-2.07-4.63-4.63s2.07-4.63,4.63-4.63,4.63,2.07,4.63,4.63-2.07,4.63-4.63,4.63Z"/>
    <circle class="cls-2" cx="1407.65" cy="146.36" r="1.67"/>
  </g>
  <line class="cls-12" x1="1106.05" y1="81.5" x2="1106.05" y2="336.32"/>
  <line class="cls-12" x1="2123.38" y1="81.5" x2="2123.38" y2="336.32"/>
  <g>
    <polygon class="cls-2" points="2353.72 212.14 2356.44 220.92 2351.08 220.92 2353.72 212.14"/>
    <path class="cls-2" d="M2378.99,195.61h-32.66c-4.95,0-8.95,4.01-8.95,8.95v31.39c0,4.95,4.01,8.95,8.95,8.95h32.66c4.95,0,8.95-4.01,8.95-8.95v-31.39c0-4.95-4.01-8.95-8.95-8.95ZM2364.17,230.37h-4.41c-.16.02-.3-.08-.34-.24l-1.73-5.03h-7.84l-1.59,4.96c-.04.19-.21.31-.41.31h-3.97c-.23,0-.31-.12-.24-.37l6.78-19.46c.07-.2.14-.4.2-.66.09-.45.13-.91.13-1.38-.02-.12.06-.22.18-.24.02,0,.04,0,.06,0h5.39c.16,0,.25.06.27.17l7.7,21.6c.07.23,0,.34-.2.34ZM2380.71,221.97c-.03.41-.06.7-.08.88-.02.16-.15.27-.31.27-.13,0-.37.02-.7.05s-.74.06-1.22.07c-.49.01-1-.07-1.54-.07h-6.68c.08.66.3,1.3.64,1.87.38.57.91,1.01,1.54,1.27.85.37,1.77.55,2.7.53.74-.01,1.47-.09,2.19-.24.64-.09,1.27-.25,1.88-.49.11-.09.17-.03.17.17v3.22c0,.09-.01.17-.05.25-.04.06-.09.11-.15.15-.67.3-1.38.51-2.1.63-.98.19-1.98.27-2.99.25-2.53,0-5.02-.74-6.68-2.75-1.31-1.59-1.9-3.78-1.9-5.83,0-2.23.67-4.49,2.1-6.22,1.55-1.88,3.69-2.66,6.07-2.66,2.05,0,4.17.69,5.49,2.32,1.11,1.37,1.66,3.22,1.66,4.97,0,.49-.02.94-.05,1.35ZM2373.43,216.99c-1.17-.07-2.26.55-2.8,1.59-.23.47-.39.98-.46,1.5h4.44c.54,0,.94,0,1.21-.02.17-.02.34-.07.49-.16v-.2c0-.27-.05-.53-.13-.78-.38-1.19-1.5-1.98-2.75-1.93Z"/>
  </g>
  <g id="Layer_2" data-name="Layer 2">
    <g id="Surfaces">
      <g id="Drawing_Surface" data-name="Drawing Surface">
        <g id="Outline_no_shadow" data-name="Outline no shadow">
          <path class="cls-2" d="M2420.93,212.13h-.04l-2.61,8.79h5.35l-2.7-8.79ZM2420.93,212.13h-.04l-2.61,8.79h5.35l-2.7-8.79ZM2442,195.61h-32.66c-4.95,0-8.95,4-8.95,8.95v31.39c0,4.95,4,8.95,8.95,8.95h32.66c4.95,0,8.95-4,8.95-8.95v-31.39c0-4.95-4-8.95-8.95-8.95ZM2431.36,230.44h-4.4c-.15.02-.29-.08-.34-.23l-1.73-5.01h-7.84l-1.6,4.95c-.04.19-.21.32-.4.29h-3.96c-.23,0-.29-.13-.23-.38l6.78-19.53c.06-.21.13-.44.21-.7.08-.44.13-.91.13-1.37-.02-.11.06-.21.17-.23h5.46c.17,0,.25.06.27.17l7.69,21.7c.06.23,0,.34-.21.34ZM2438.52,230.12c0,.23-.08.34-.27.34h-4.13c-.21,0-.32-.13-.32-.34v-16.22c0-.21.08-.29.27-.29h4.17c.19,0,.27.11.27.29v16.22h0ZM2438.08,211.09c-.48.51-1.2.78-1.92.74-.7.02-1.37-.25-1.88-.74-.48-.53-.74-1.22-.72-1.94-.02-.72.25-1.39.76-1.88.51-.48,1.18-.74,1.88-.74.82,0,1.45.25,1.92.74.46.51.72,1.18.7,1.88.02.72-.23,1.41-.74,1.94ZM2420.89,212.13l-2.61,8.79h5.35l-2.7-8.79h-.04Z"/>
        </g>
      </g>
    </g>
  </g>
  <g id="Layer_2-2" data-name="Layer 2">
    <g id="Surfaces-2" data-name="Surfaces">
      <g id="Photo_Surface" data-name="Photo Surface">
        <g id="Outline_no_shadow-2" data-name="Outline no shadow">
          <path class="cls-2" d="M2550.93,213.93c.34.54.52,1.19.5,1.86,0,.93-.21,1.64-.65,2.17-.98,1.16-2.71,1.5-4.15,1.5h-1.12c-.25,0-.53-.02-.82-.04v-7.08c.15-.02.44-.04.86-.02.4-.02.88-.02,1.43-.02,1.45,0,3.11.32,3.94,1.63Z"/>
          <path class="cls-2" d="M2570.33,195.61h-32.66c-4.95,0-8.95,4-8.95,8.95v31.39c0,4.95,4,8.95,8.95,8.95h32.66c4.95,0,8.95-4,8.95-8.95v-31.39c0-4.95-4-8.95-8.95-8.95ZM2554.76,220.15c-.84,1.18-2.02,2.06-3.39,2.57-1.43.53-3.01.72-4.74.72-.51,0-.84,0-1.05-.02-.21-.02-.51-.02-.91-.02v6.76c.02.15-.08.27-.23.29h-4.09c-.17,0-.25-.08-.25-.27v-21.68c0-.15.06-.23.21-.23.36,0,.7,0,1.18-.02.51-.02,1.03-.02,1.6-.04.57-.02,1.18-.02,1.83-.04.65-.02,1.29-.02,1.92-.02,1.73,0,3.16.21,4.34.65,1.05.36,2.02.95,2.82,1.73.67.67,1.2,1.5,1.54,2.4.32.88.48,1.79.48,2.74,0,1.81-.42,3.31-1.26,4.49ZM2569.7,228.35c-.59.84-1.41,1.5-2.36,1.88-1.03.44-2.3.67-3.81.67-.97,0-1.92-.08-2.87-.27-.74-.13-1.47-.36-2.15-.67-.15-.08-.25-.23-.23-.4v-3.67c0-.06.02-.15.08-.19s.13-.02.19.02c.82.48,1.69.82,2.61,1.03.8.21,1.64.32,2.49.32s1.37-.11,1.75-.29c.34-.15.57-.51.57-.88,0-.29-.17-.57-.51-.84-.34-.27-1.03-.59-2.06-.99-1.07-.38-2.06-.88-2.99-1.52-.65-.46-1.2-1.07-1.6-1.79-.34-.67-.51-1.41-.48-2.15,0-.91.25-1.77.72-2.55.53-.84,1.31-1.52,2.21-1.94.99-.51,2.23-.74,3.73-.74.86,0,1.75.06,2.61.19.63.08,1.24.25,1.81.48.08.02.17.11.21.19.02.08.04.17.04.25v3.43c0,.08-.04.17-.11.21-.19.04-.29.04-.38,0-.63-.34-1.31-.57-2.02-.72-.78-.17-1.56-.27-2.36-.27-.42-.02-.86.04-1.26.15-.27.06-.51.21-.65.42-.11.17-.17.38-.17.57s.08.38.21.55c.19.23.44.42.72.57.48.25.99.48,1.5.7,1.14.38,2.23.91,3.24,1.54.7.44,1.26,1.03,1.66,1.75.34.67.51,1.41.48,2.17.02.99-.27,1.98-.82,2.8Z"/>
        </g>
      </g>
    </g>
  </g>
  <g id="Layer_2-3" data-name="Layer 2">
    <g id="Surfaces-3" data-name="Surfaces">
      <g id="Video_Audio_Surface" data-name="Video Audio Surface">
        <g id="Outline_no_shadow-3" data-name="Outline no shadow">
          <path class="cls-2" d="M2488.53,213.92c.34.57.51,1.22.48,1.88,0,.93-.21,1.64-.65,2.17-.46.53-1.05.93-1.73,1.12-.78.25-1.6.38-2.42.38h-1.12c-.25,0-.53-.02-.82-.04v-7.08c.15-.02.44-.04.86-.02.4-.02.88-.02,1.43-.02.86-.02,1.71.11,2.49.42.61.23,1.12.65,1.47,1.2Z"/>
          <path class="cls-2" d="M2507.28,195.61h-32.66c-4.95,0-8.95,4-8.95,8.95v31.39c0,4.95,4,8.95,8.95,8.95h32.66c4.95,0,8.95-4,8.95-8.95v-31.39c0-4.95-4-8.95-8.95-8.95ZM2492.35,220.15c-1.87,2.62-5.09,3.29-8.13,3.29-.51,0-.84,0-1.05-.02s-.51-.02-.91-.02v6.76c.02.15-.08.27-.23.29h-4.09c-.17,0-.25-.08-.25-.27v-21.68c0-.15.06-.23.21-.23.36,0,.7,0,1.18-.02l5.35-.11c1.73,0,3.16.21,4.34.65,1.97.74,3.62,2.13,4.36,4.13.85,2.28.65,5.22-.78,7.23ZM2506.72,217.63c0,.17-.11.23-.34.23-.76-.02-1.54.04-2.28.21-.61.13-1.2.32-1.77.57-.4.19-.78.44-1.07.78v10.75c0,.21-.08.29-.27.29h-4.15c-.17.02-.32-.08-.34-.25v-11.76c0-.51,0-1.03-.02-1.58s-.02-1.1-.04-1.64c0-.48-.04-.95-.08-1.43-.02-.11.04-.21.15-.23,0-.02.04-.02.06,0h3.69c.21,0,.38.15.44.34.06.17.11.34.13.53.04.21.08.44.11.65.02.23.04.48.04.76.63-.74,1.39-1.35,2.25-1.81.97-.55,2.09-.82,3.2-.82.15-.02.27.08.29.23v4.19h0Z"/>
        </g>
      </g>
    </g>
  </g>
  <g id="Group">
    <g id="Rectangle_55_2" data-name="Rectangle 55_2">
      <path class="cls-2" d="M2790.52,213.8c2.3-1.51,3.83-4.12,3.83-7.08,0-4.67-3.8-8.46-8.47-8.46h-14.52c-4.67,0-8.47,3.8-8.47,8.46,0,2.96,1.53,5.57,3.83,7.08-2.3,1.51-3.83,4.12-3.83,7.08s1.53,5.57,3.83,7.08c-2.3,1.51-3.83,4.12-3.83,7.08,0,4.67,3.82,8.46,8.51,8.46s8.6-3.84,8.6-8.56v-7.81c1.5,1.37,3.5,2.21,5.69,2.21h.18c4.67,0,8.47-3.8,8.47-8.46,0-2.96-1.53-5.57-3.83-7.08ZM2780,201.03h5.88c3.14,0,5.69,2.55,5.69,5.69s-2.55,5.69-5.69,5.69h-5.88v-11.38h0ZM2765.66,206.72c0-3.14,2.55-5.69,5.69-5.69h5.88v11.38h-5.88c-3.14,0-5.69-2.55-5.69-5.69ZM2765.66,220.88c0-3.14,2.55-5.69,5.69-5.69h5.88v11.38h-5.91c-3.12-.02-5.66-2.57-5.66-5.69ZM2777.23,234.95c0,3.19-2.62,5.78-5.83,5.78s-5.74-2.55-5.74-5.69,2.55-5.69,5.69-5.69h5.88v5.6h0ZM2785.88,226.58h-.18c-3.14,0-5.69-2.55-5.69-5.69s2.55-5.69,5.69-5.69h.18c3.14,0,5.69,2.55,5.69,5.69s-2.55,5.69-5.69,5.69Z"/>
    </g>
  </g>
  <path class="cls-2" d="M2837.02,198.26c-.62,0-1.21.24-1.64.63,0,0-.09.09-.12.12-.03.04-.08.09-.13.15-.12.13-.28.31-.5.55-.42.47-1.02,1.14-1.73,1.94-1.43,1.6-3.33,3.72-5.23,5.84l-6.95,7.78c-1.73-1.41-3.67-2.98-5.05-4.1-1.31-1.06-2.4-1.95-3.18-2.58-.39-.31-.69-.56-.9-.73-.11-.09-.19-.15-.24-.2-.02-.02-.04-.03-.06-.04h0s0,0,0,0c-.35-.31-.81-.51-1.32-.51-.38,0-.49.08-.68.15s-.41.16-.64.26c-.46.21-1.01.47-1.53.74-1.05.53-2.02,1.05-2.02,1.05h0c-.61.35-1.04.99-1.04,1.73v20.65c0,.77.46,1.44,1.12,1.76h0s.9.47,1.85.95c.48.24.96.48,1.36.68s.61.31.84.4c.23.09.48.14.74.14.35,0,.68-.09.97-.26h0s.09-.06.1-.07c.01,0,.02-.01.02-.02,0,0,.01-.01.02-.02.01,0,.02-.02.03-.02.02-.02.06-.05.1-.08.08-.07.2-.16.34-.28.29-.24.7-.58,1.19-1,.98-.82,2.29-1.91,3.59-3,2.26-1.89,3.94-3.3,4.5-3.77,3.56,3.87,7.13,7.73,9.81,10.65,1.38,1.5,2.53,2.75,3.35,3.63.41.44.73.79.95,1.03.11.12.2.22.26.28.03.03.06.06.08.08.02.02-.04-.03.09.09h0c.43.39,1.01.62,1.63.62.36,0,.71-.09,1.02-.23h0s2.37-1.22,4.77-2.46c1.2-.62,2.41-1.25,3.34-1.73.46-.24.86-.45,1.14-.6s.4-.21.53-.28c.89-.51,1.49-1.47,1.49-2.56v-29.51c0-1.01-.52-1.92-1.3-2.45-.13-.09-.15-.09-.24-.14s-.21-.12-.36-.19c-.29-.16-.69-.37-1.16-.61-.94-.49-2.16-1.12-3.37-1.75-2.42-1.25-4.8-2.48-4.8-2.48h0c-.32-.16-.69-.24-1.06-.24ZM2837.02,200.23c.11,0,.19.03.27.08.13.09.22.23.22.41v9.87l-11.11,9.31c-.58-.47-.58-.47-1.16-.94-1.09-.88-1.94-1.57-3-2.44.6-.67,3.44-3.85,6.89-7.71,1.9-2.12,3.8-4.25,5.23-5.84.72-.8,1.31-1.46,1.73-1.93.21-.23.38-.42.49-.55.05-.06.09-.1.12-.13.09-.07.19-.12.32-.12ZM2839.48,201.44c.91.47,1.24.64,2.5,1.29,1.21.63,2.43,1.26,3.36,1.75.47.24.86.45,1.15.61.14.08.26.14.34.18.08.04.18.11.08.04h0c.26.18.43.47.43.82v29.51c0,.37-.2.69-.5.85.06-.03-.18.1-.47.25s-.68.35-1.14.59c-.93.48-2.14,1.11-3.34,1.73-1.22.63-1.53.79-2.43,1.26v-38.88ZM2810,209.1s.03.02.03.03c.02.01.04.03.07.06.06.05.14.11.25.2.21.17.51.42.9.73.77.63,1.87,1.52,3.18,2.58,2.62,2.13,6.1,4.96,9.58,7.78,6.76,5.49,13.14,10.66,13.51,10.96v9.6c0,.19-.1.34-.25.42,0,0-.07.04-.07.04-.05.02-.11.03-.17.03-.13,0-.23-.05-.32-.12-.01-.01-.02-.03-.04-.05-.06-.06-.15-.16-.26-.28-.22-.24-.54-.59-.95-1.03-.81-.88-1.97-2.13-3.35-3.63-2.76-2.99-6.42-6.96-10.08-10.93s-7.31-7.94-10.06-10.92c-1.37-1.49-2.52-2.73-3.32-3.6-.35-.38-.6-.65-.81-.88.09-.05.09-.05.18-.09.51-.26,1.03-.51,1.44-.7.21-.09.39-.17.51-.21.02,0,.02,0,.04,0ZM2806.04,211.06c.06.06.13.14.23.24.22.23.54.58.94,1.01.43.47,1.17,1.27,1.79,1.94v14.14l-2.95,3.3s0,0,0,0v-20.64ZM2837.51,213.15v15.76c-1.05-.85-4.96-4.02-9.55-7.75l9.55-8ZM2810.96,216.39c1.25,1.35,2.94,3.19,4.45,4.83l-4.45,4.98v-9.8ZM2816.74,222.67c.97,1.05,1.76,1.92,2.77,3.01-.61.51-2.21,1.85-4.43,3.71-1.3,1.09-2.61,2.18-3.59,3-.49.41-.9.75-1.19.99-.14.12-.26.21-.34.28h0s-.31-.15-.69-.33c-.39-.19-.87-.43-1.34-.67-.04-.02-.03-.02-.07-.04l8.89-9.95ZM2809.98,233.66l.45.81-.46-.8h0s0,0,0,0Z"/>
  <path class="cls-2" d="M2709.38,197.09l3.81,43.26,17.12,5.71,17.22-5.71,3.81-43.26h-41.97ZM2743.07,211.07h-20.09l.45,5.4h19.19l-1.49,16.22-10.7,2.95v.03h-.12l-10.79-2.98-.66-8.28h5.21l.38,4.16,5.85,1.58,5.87-1.58.66-6.8h-18.24l-1.4-15.91h26.35l-.48,5.21Z"/>
  <path class="cls-2" d="M2660.07,197.09l3.83,43.48,17.26,5.73,17.26-5.73,3.83-43.48h-42.18ZM2694.46,205.88l-.53,5.2-12.67,5.42h-.03s12.25.01,12.25.01l-1.41,16.1-10.79,3.15-10.85-3.21-.7-8.12h5.37l.35,4.21,5.78,1.46,6.01-1.69.41-6.77-18.27-.05h0s-.02,0-.02,0l-.4-5.09,12.31-5.13.71-.3h-13.5l-.64-5.2h26.6Z"/>
  <path class="cls-2" d="M2600.09,195.3v51h51v-51h-51ZM2627.84,235.08c0,4.96-2.91,7.23-7.16,7.23-3.84,0-6.06-1.98-7.19-4.38l3.9-2.36c.75,1.33,1.43,2.46,3.09,2.46s2.57-.61,2.57-3.02v-16.29h4.79v16.36h0ZM2639.18,242.31c-4.45,0-7.33-2.12-8.73-4.9l3.9-2.25c1.02,1.67,2.37,2.91,4.72,2.91,1.98,0,3.26-.99,3.26-2.37,0-1.64-1.3-2.22-3.49-3.19l-1.2-.51c-3.46-1.47-5.75-3.32-5.75-7.23,0-3.6,2.74-6.33,7.01-6.33,3.05,0,5.24,1.06,6.81,3.84l-3.73,2.39c-.82-1.47-1.71-2.05-3.09-2.05s-2.29.89-2.29,2.05c0,1.43.89,2.01,2.95,2.91l1.2.51c4.08,1.74,6.36,3.53,6.36,7.54,0,4.3-3.39,6.67-7.93,6.67h0Z"/>
</svg>