<svg width="220" height="220" viewBox="0 0 220 220" fill="none" xmlns="http://www.w3.org/2000/svg">
<rect x="220" y="220" width="220" height="220" transform="rotate(-180 220 220)" fill="#243066"/>
<path d="M88.682 90.4506C75.623 90.454 65 101.079 65 114.139C65 126.615 74.6948 136.868 86.9466 137.763C85.2899 135.768 83.8917 133.552 82.8041 131.165C75.7516 128.721 70.674 122.012 70.674 114.139C70.674 104.206 78.7551 96.1246 88.6883 96.1246C98.6212 96.1246 106.702 104.206 106.702 114.139C106.702 122.885 111.467 130.538 118.537 134.642C115.828 136.208 112.742 137.044 109.539 137.044C99.6062 137.044 91.5251 128.963 91.5251 119.03C91.5251 113.87 93.7787 108.965 97.5662 105.577C96.2088 104.17 94.5214 103.084 92.6297 102.444C91.2474 103.853 90.0387 105.433 89.0432 107.147C86.9548 110.742 85.8511 114.851 85.8511 119.03C85.8511 132.092 96.4776 142.718 109.539 142.718C115.17 142.718 120.524 140.754 124.79 137.157C126.587 137.594 128.462 137.827 130.391 137.827C143.453 137.827 154.079 127.201 154.079 114.139C154.079 108.509 152.07 103.052 148.421 98.7743C145.412 95.2467 141.441 92.6881 137.041 91.4C137.843 93.5371 138.403 95.7918 138.687 98.1302C144.537 101.147 148.405 107.228 148.405 114.139C148.405 124.072 140.324 132.153 130.391 132.153C120.458 132.153 112.376 124.072 112.376 114.139C112.376 103.207 104.932 93.9822 94.8469 91.2642C98.1843 86.5657 103.633 83.6739 109.539 83.6739C119.473 83.6739 127.554 91.7551 127.554 101.688C127.554 108.27 124.019 114.186 118.473 117.341C118.978 119.219 119.916 120.921 121.173 122.333C124.071 120.702 126.598 118.47 128.614 115.737C131.632 111.645 133.228 106.787 133.228 101.688C133.228 88.6264 122.601 77.9999 109.539 77.9999C100.784 77.9999 92.7907 82.8297 88.682 90.4506Z" fill="white"/>
</svg>
