<?xml version="1.0" encoding="UTF-8"?>
<svg id="Camada_1" data-name="Camada 1" xmlns="http://www.w3.org/2000/svg" viewBox="0 0 512.66 500">
  <defs>
    <style>
      .cls-1 {
        fill-rule: evenodd;
      }

      .cls-1, .cls-2 {
        stroke-width: 0px;
      }
    </style>
  </defs>
  <path class="cls-1" d="M256.32,0C114.77,0,0,114.75,0,256.32c0,113.25,73.44,209.33,175.28,243.23,12.82,2.37,17.52-5.55,17.52-12.32,0-6.11-.23-26.29-.34-47.72-71.3,15.51-86.36-30.25-86.36-30.25-11.66-29.63-28.45-37.51-28.45-37.51-23.26-15.91,1.75-15.57,1.75-15.57,25.74,1.82,39.28,26.42,39.28,26.42,22.86,39.17,59.96,27.85,74.59,21.3,2.31-16.58,8.95-27.87,16.28-34.28-56.92-6.47-116.78-28.45-116.78-126.66,0-27.98,10.02-50.86,26.42-68.8-2.67-6.47-11.45-32.53,2.48-67.84,0,0,21.53-6.88,70.51,26.27,20.44-5.68,42.36-8.52,64.14-8.63,21.79.11,43.72,2.95,64.21,8.63,48.91-33.17,70.42-26.27,70.42-26.27,13.95,35.31,5.17,61.37,2.52,67.84,16.43,17.94,26.38,40.82,26.38,68.8,0,98.45-59.96,120.13-117.03,126.47,9.18,7.95,17.39,23.56,17.39,47.46,0,34.3-.3,61.9-.3,70.34,0,6.81,4.61,14.82,17.6,12.3,101.8-33.94,175.15-129.98,175.15-243.18C512.64,114.77,397.87,0,256.32,0Z"/>
  <path class="cls-2" d="M97.08,368.03c-.56,1.28-2.56,1.67-4.4.79-1.86-.83-2.9-2.58-2.31-3.84.56-1.3,2.56-1.67,4.42-.79,1.86.81,2.93,2.56,2.29,3.84h0Z"/>
  <path class="cls-2" d="M107.46,379.61c-1.22,1.13-3.61.6-5.23-1.17-1.69-1.79-1.99-4.19-.75-5.32,1.26-1.13,3.57-.6,5.25,1.2,1.69,1.77,2.01,4.14.73,5.3h0Z"/>
  <path class="cls-2" d="M117.57,394.37c-1.58,1.09-4.14.06-5.72-2.2-1.58-2.29-1.58-5.02.04-6.11,1.58-1.09,4.12-.11,5.72,2.16,1.56,2.31,1.56,5.04-.04,6.15h0Z"/>
  <path class="cls-2" d="M131.41,408.64c-1.41,1.56-4.4,1.13-6.58-.98-2.24-2.07-2.86-5-1.45-6.56,1.43-1.56,4.44-1.11,6.64.98,2.22,2.07,2.88,5.02,1.39,6.56h0Z"/>
  <path class="cls-2" d="M150.52,416.9c-.62,2.01-3.5,2.93-6.41,2.07-2.9-.88-4.81-3.23-4.21-5.25.6-2.03,3.5-2.97,6.43-2.05,2.88.85,4.78,3.2,4.19,5.23h0Z"/>
  <path class="cls-2" d="M171.5,418.44c.06,2.11-2.39,3.87-5.45,3.91-3.05.06-5.55-1.64-5.57-3.72,0-2.14,2.41-3.87,5.47-3.93,3.05-.06,5.55,1.64,5.55,3.74h0Z"/>
  <path class="cls-2" d="M191.02,415.13c.36,2.05-1.75,4.19-4.78,4.74-2.97.56-5.72-.73-6.11-2.78-.36-2.11,1.79-4.23,4.76-4.78,3.01-.53,5.75.7,6.13,2.82h0Z"/>
</svg>