<?xml version="1.0" encoding="UTF-8"?>
<svg id="Camada_1" data-name="Camada 1" xmlns="http://www.w3.org/2000/svg" viewBox="0 0 500 500">
  <defs>
    <style>
      .cls-1 {
        fill: #7877DF; /* Cor alterada para #7877DF */
        stroke-width: 0px;
      }
    </style>
  </defs>
  <path class="cls-1" d="M250,45.04c66.75,0,74.67.25,101.02,1.46,27.25,1.25,55.31,7.46,75.17,27.31,20.04,20.04,26.06,47.83,27.31,75.17,1.21,26.35,1.46,34.27,1.46,101.02s-.25,74.67-1.46,101.02c-1.23,27.1-7.58,55.44-27.31,75.17-20.04,20.04-47.81,26.06-75.17,27.31-26.35,1.21-34.27,1.46-101.02,1.46s-74.67-.25-101.02-1.46c-26.9-1.23-55.6-7.73-75.17-27.31-19.94-19.94-26.06-48-27.31-75.17-1.21-26.35-1.46-34.27-1.46-101.02s.25-74.67,1.46-101.02c1.23-27,7.65-55.5,27.31-75.17,20-20,47.9-26.06,75.17-27.31,26.35-1.21,34.27-1.46,101.02-1.46M250,0c-67.9,0-76.42.29-103.08,1.5-38.65,1.77-77.02,12.52-104.96,40.46C13.92,70,3.27,108.29,1.5,146.92c-1.21,26.67-1.5,35.19-1.5,103.08s.29,76.42,1.5,103.08c1.77,38.6,12.56,77.08,40.46,104.96,28.02,28.02,66.37,38.69,104.96,40.46,26.67,1.21,35.19,1.5,103.08,1.5s76.42-.29,103.08-1.5c38.63-1.77,77.04-12.54,104.96-40.46,28.06-28.06,38.69-66.33,40.46-104.96,1.21-26.67,1.5-35.19,1.5-103.08s-.29-76.42-1.5-103.08c-1.77-38.65-12.54-77.04-40.46-104.96C430.06,13.98,391.6,3.25,353.08,1.5c-26.67-1.21-35.19-1.5-103.08-1.5Z"/>
  <path class="cls-1" d="M250,121.62c-70.9,0-128.38,57.48-128.38,128.38s57.48,128.38,128.38,128.38,128.38-57.48,128.38-128.38-57.48-128.38-128.38-128.38ZM250,333.33c-46.02,0-83.33-37.31-83.33-83.33s37.31-83.33,83.33-83.33,83.33,37.31,83.33,83.33-37.31,83.33-83.33,83.33Z"/>
  <circle class="cls-1" cx="383.46" cy="116.54" r="30"/>
</svg>
