<?xml version="1.0" encoding="UTF-8"?>
<svg id="Camada_1" data-name="Camada 1" xmlns="http://www.w3.org/2000/svg" viewBox="0 0 499.97 500">
  <defs>
    <style>
      .cls-1 {
        stroke-width: 0px;
      }
    </style>
  </defs>
  <path id="Path_2520" data-name="Path 2520" class="cls-1" d="M421,429.83h-78.92v-116.22c0-27.72-.47-63.38-36.64-63.38s-42.31,30.18-42.31,61.38v118.22h-70.17v-236.83h70.17v26.31h.97c14.31-25.33,40.9-40.46,69.21-39.38,74.07,0,87.7,50.48,87.7,116.12l-.02,133.77ZM106.79,155.64c-23.79,0-43.07-19.28-43.07-43.07s19.28-43.07,43.07-43.07,43.07,19.28,43.07,43.07c0,23.79-19.28,43.07-43.07,43.07h0M140.34,429.83h-70.17v-236.83h70.17v236.83ZM464.88.03H36.88C16.75-.19.25,15.95,0,36.08v427.85c.25,20.16,16.75,36.29,36.88,36.07h426.06c20.18.25,36.76-15.89,37.03-36.07V36.05C499.67,15.87,483.09-.27,462.94,0"/>
</svg>