<?xml version="1.0" encoding="UTF-8"?>
<svg id="Camada_1" data-name="Camada 1" xmlns="http://www.w3.org/2000/svg" viewBox="0 0 497.94 282.49">
  <defs>
    <style>
      .cls-1 {
        letter-spacing: .01em;
      }

      .cls-2 {
        letter-spacing: -.01em;
      }

      .cls-3 {
        stroke-width: 0px;
      }

      .cls-3, .cls-4 {
        fill: #7877df;
      }

      .cls-5 {
        letter-spacing: -.02em;
      }

      .cls-4 {
        font-family: QuicksandBook-Regular, Quicksand;
        font-size: 29.01px;
      }

      .cls-6 {
        fill: none;
        stroke: #7877df;
        stroke-linecap: round;
        stroke-miterlimit: 10;
      }
    </style>
  </defs>

  <path class="cls-3" d="M112.07,106.96c1.68,1.68,2.52,3.85,2.52,6.51v91.52c0,2.57-.84,4.71-2.52,6.44-1.68,1.73-3.8,2.59-6.37,2.59s-4.66-.84-6.29-2.52c-1.63-1.68-2.49-3.8-2.59-6.37-2.47,2.86-5.8,5.31-10,7.33-4.2,2.02-8.62,3.04-13.25,3.04-6.81,0-12.98-1.75-18.51-5.26-5.53-3.5-9.9-8.37-13.11-14.59-3.21-6.22-4.81-13.28-4.81-21.18s1.58-14.98,4.74-21.25c3.16-6.27,7.48-11.16,12.96-14.66,5.48-3.5,11.53-5.26,18.14-5.26,4.74,0,9.18.87,13.33,2.59,4.15,1.73,7.65,3.92,10.51,6.59v-29.03c0-2.57.84-4.71,2.52-6.44,1.68-1.73,3.8-2.59,6.37-2.59s4.69.84,6.37,2.52ZM91.49,192.18c4.05-4.69,6.07-10.59,6.07-17.7s-2.02-13.03-6.07-17.77c-4.05-4.74-9.28-7.11-15.7-7.11s-11.5,2.37-15.55,7.11c-4.05,4.74-6.07,10.66-6.07,17.77s2,13.01,6,17.7c4,4.69,9.2,7.03,15.62,7.03s11.65-2.34,15.7-7.03Z"/>
  <path class="cls-3" d="M208.53,171.11c-2.09,1.74-4.53,2.61-7.32,2.61h-57.47c1.39,6.85,4.58,12.22,9.58,16.11,4.99,3.89,10.62,5.84,16.89,5.84,4.76,0,8.47-.44,11.15-1.31,2.67-.87,4.79-1.8,6.36-2.79,1.57-.99,2.64-1.66,3.22-2,2.09-1.05,4.06-1.57,5.92-1.57,2.44,0,4.53.87,6.27,2.61,1.74,1.74,2.61,3.77,2.61,6.1,0,3.13-1.63,5.98-4.88,8.53-3.25,2.67-7.61,4.93-13.06,6.79-5.46,1.86-10.97,2.79-16.55,2.79-9.75,0-18.26-2.03-25.51-6.1-7.26-4.06-12.86-9.66-16.81-16.81-3.95-7.14-5.92-15.18-5.92-24.12,0-9.98,2.09-18.75,6.27-26.3,4.18-7.55,9.69-13.32,16.55-17.33,6.85-4.01,14.16-6.01,21.94-6.01s14.89,2.09,21.68,6.27c6.79,4.18,12.22,9.81,16.28,16.89,4.06,7.09,6.1,14.75,6.1,22.99-.12,2.79-1.22,5.05-3.31,6.79ZM143.92,156.31h45.63v-1.22c-.47-4.87-2.85-9.06-7.14-12.54-4.3-3.48-9.17-5.22-14.63-5.22-13.47,0-21.42,6.33-23.86,18.98Z"/>
  <path class="cls-3" d="M66.39,27.61c1.47,1.48,2.21,3.39,2.21,5.73v55.09c0,2.26-.74,4.15-2.21,5.66-1.48,1.52-3.34,2.28-5.6,2.28s-4.1-.74-5.53-2.21c-1.43-1.47-2.19-3.34-2.28-5.6-2.17,2.52-5.1,4.67-8.79,6.45-3.69,1.78-7.58,2.67-11.66,2.67-5.99,0-11.42-1.54-16.28-4.62-4.86-3.08-8.7-7.36-11.53-12.83-2.82-5.47-4.23-11.68-4.23-18.62s1.39-13.17,4.17-18.69c2.78-5.51,6.58-9.81,11.4-12.89,4.82-3.08,10.13-4.62,15.95-4.62,4.17,0,8.07.76,11.72,2.28,3.65,1.52,6.73,3.45,9.25,5.8v-.13c0-2.26.74-4.14,2.21-5.66,1.48-1.52,3.34-2.28,5.6-2.28s4.12.74,5.6,2.21ZM48.29,77.16c3.56-4.12,5.34-9.31,5.34-15.56s-1.78-11.46-5.34-15.63c-3.56-4.17-8.16-6.25-13.8-6.25s-10.11,2.08-13.67,6.25c-3.56,4.17-5.34,9.38-5.34,15.63s1.76,11.44,5.27,15.56c3.52,4.12,8.09,6.18,13.74,6.18s10.24-2.06,13.8-6.18Z"/>
  <path class="cls-3" d="M141.14,33.27c3.39,5.25,5.08,12.52,5.08,21.81v33.34c0,2.26-.74,4.15-2.21,5.66-1.48,1.52-3.34,2.28-5.6,2.28s-4.12-.76-5.6-2.28c-1.48-1.52-2.21-3.41-2.21-5.66v-33.34c0-4.77-1-8.53-3-11.26-2-2.73-5.43-4.1-10.29-4.1s-8.99,1.45-11.85,4.36c-2.87,2.91-4.3,6.58-4.3,11v33.34c0,2.26-.74,4.15-2.21,5.66-1.48,1.52-3.34,2.28-5.6,2.28s-4.12-.76-5.6-2.28c-1.48-1.52-2.21-3.41-2.21-5.66v-53.78c0-2.26.74-4.14,2.21-5.66,1.48-1.52,3.34-2.28,5.6-2.28s4.12.76,5.6,2.28c1.47,1.52,2.21,3.41,2.21,5.66v2.21c2.34-3.13,5.4-5.81,9.18-8.07,3.78-2.26,7.92-3.39,12.44-3.39,8.86,0,14.98,2.63,18.36,7.88Z"/>
  <path class="cls-3" d="M470.08,128.7c3.39,5.25,5.08,12.52,5.08,21.81v33.34c0,2.26-.74,4.15-2.21,5.66-1.48,1.52-3.34,2.28-5.6,2.28s-4.12-.76-5.6-2.28c-1.48-1.52-2.21-3.41-2.21-5.66v-33.34c0-4.77-1-8.53-3-11.26-2-2.73-5.43-4.1-10.29-4.1s-8.99,1.45-11.85,4.36c-2.87,2.91-4.3,6.58-4.3,11v33.34c0,2.26-.74,4.15-2.21,5.66-1.48,1.52-3.34,2.28-5.6,2.28s-4.12-.76-5.6-2.28c-1.48-1.52-2.21-3.41-2.21-5.66v-53.78c0-2.26.74-4.14,2.21-5.66,1.48-1.52,3.34-2.28,5.6-2.28s4.12.76,5.6,2.28c1.47,1.52,2.21,3.41,2.21,5.66v2.21c2.34-3.13,5.4-5.81,9.18-8.07,3.78-2.26,7.92-3.39,12.44-3.39,8.86,0,14.98,2.63,18.36,7.88Z"/>
  <path class="cls-3" d="M218.75,33.27c3.39,5.25,5.08,12.52,5.08,21.81v33.34c0,2.26-.74,4.15-2.21,5.66-1.48,1.52-3.34,2.28-5.6,2.28s-4.12-.76-5.6-2.28c-1.48-1.52-2.21-3.41-2.21-5.66v-33.34c0-4.77-1-8.53-3-11.26-2-2.73-5.43-4.1-10.29-4.1s-8.99,1.45-11.85,4.36c-2.87,2.91-4.3,6.58-4.3,11v33.34c0,2.26-.74,4.15-2.21,5.66-1.48,1.52-3.34,2.28-5.6,2.28s-4.12-.76-5.6-2.28c-1.48-1.52-2.21-3.41-2.21-5.66v-53.78c0-2.26.74-4.14,2.21-5.66,1.48-1.52,3.34-2.28,5.6-2.28s4.12.76,5.6,2.28c1.47,1.52,2.21,3.41,2.21,5.66v2.21c2.34-3.13,5.4-5.81,9.18-8.07,3.78-2.26,7.92-3.39,12.44-3.39,8.86,0,14.98,2.63,18.36,7.88Z"/>
  <path class="cls-3" d="M302.74,27.61c1.47,1.48,2.21,3.39,2.21,5.73v55.09c0,2.26-.74,4.15-2.21,5.66-1.48,1.52-3.34,2.28-5.6,2.28s-4.1-.74-5.53-2.21c-1.43-1.47-2.19-3.34-2.28-5.6-2.17,2.52-5.1,4.67-8.79,6.45-3.69,1.78-7.58,2.67-11.66,2.67-5.99,0-11.42-1.54-16.28-4.62-4.86-3.08-8.7-7.36-11.53-12.83-2.82-5.47-4.23-11.68-4.23-18.62s1.39-13.17,4.17-18.69c2.78-5.51,6.58-9.81,11.4-12.89,4.82-3.08,10.13-4.62,15.95-4.62,4.17,0,8.07.76,11.72,2.28,3.65,1.52,6.73,3.45,9.25,5.8v-.13c0-2.26.74-4.14,2.21-5.66,1.48-1.52,3.34-2.28,5.6-2.28s4.12.74,5.6,2.21ZM284.64,77.16c3.56-4.12,5.34-9.31,5.34-15.56s-1.78-11.46-5.34-15.63c-3.56-4.17-8.16-6.25-13.8-6.25s-10.11,2.08-13.67,6.25c-3.56,4.17-5.34,9.38-5.34,15.63s1.76,11.44,5.27,15.56c3.52,4.12,8.09,6.18,13.74,6.18s10.24-2.06,13.8-6.18Z"/>
  <path class="cls-3" d="M374.23,30.02c4.86,3.08,8.7,7.36,11.52,12.83,2.82,5.47,4.23,11.68,4.23,18.62s-1.39,13.18-4.17,18.69c-2.78,5.51-6.58,9.81-11.39,12.89-4.82,3.08-10.14,4.62-15.95,4.62-4.17,0-8.1-.85-11.79-2.54-3.69-1.69-6.75-3.76-9.18-6.19v.78c0,2.26-.74,4.15-2.21,5.66-1.48,1.52-3.35,2.28-5.6,2.28s-4.12-.74-5.6-2.21c-1.48-1.48-2.21-3.39-2.21-5.73V7.94c0-2.26.74-4.14,2.21-5.66,1.48-1.52,3.34-2.28,5.6-2.28s4.12.76,5.6,2.28c1.47,1.52,2.21,3.41,2.21,5.66v27.22c2.08-2.61,4.99-4.88,8.72-6.84,3.73-1.95,7.64-2.93,11.72-2.93,5.99,0,11.42,1.54,16.28,4.62ZM369.68,77.09c3.56-4.17,5.34-9.38,5.34-15.63s-1.76-11.44-5.27-15.56c-3.52-4.12-8.09-6.18-13.74-6.18s-10.24,2.06-13.8,6.18c-3.56,4.13-5.34,9.31-5.34,15.56s1.78,11.46,5.34,15.63c3.56,4.17,8.16,6.25,13.8,6.25s10.11-2.08,13.67-6.25Z"/>
  <path class="cls-3" d="M403.53,16.8c-1.22-.95-1.82-2.65-1.82-5.08v-2.47c0-2.43.65-4.12,1.95-5.08,1.3-.95,3.39-1.43,6.25-1.43,3.04,0,5.16.48,6.38,1.43,1.22.96,1.82,2.65,1.82,5.08v2.47c0,2.52-.63,4.23-1.89,5.14-1.26.91-3.41,1.37-6.44,1.37s-5.04-.48-6.25-1.43ZM415.51,94.08c-1.48,1.52-3.34,2.28-5.6,2.28s-4.12-.76-5.6-2.28c-1.48-1.52-2.21-3.41-2.21-5.66v-53.78c0-2.26.74-4.14,2.21-5.66,1.48-1.52,3.34-2.28,5.6-2.28s4.12.76,5.6,2.28c1.48,1.52,2.21,3.41,2.21,5.66v53.78c0,2.26-.74,4.15-2.21,5.66Z"/>
  <path class="cls-3" d="M495.73,27.61c1.47,1.48,2.21,3.39,2.21,5.73v55.09c0,2.26-.74,4.15-2.21,5.66-1.48,1.52-3.34,2.28-5.6,2.28s-4.1-.74-5.54-2.21c-1.43-1.47-2.19-3.34-2.28-5.6-2.17,2.52-5.1,4.67-8.79,6.45-3.69,1.78-7.58,2.67-11.66,2.67-5.99,0-11.42-1.54-16.28-4.62-4.86-3.08-8.7-7.36-11.52-12.83-2.82-5.47-4.23-11.68-4.23-18.62s1.39-13.17,4.17-18.69c2.78-5.51,6.58-9.81,11.4-12.89,4.82-3.08,10.13-4.62,15.95-4.62,4.17,0,8.08.76,11.72,2.28,3.65,1.52,6.73,3.45,9.25,5.8v-.13c0-2.26.74-4.14,2.21-5.66,1.47-1.52,3.34-2.28,5.6-2.28s4.12.74,5.6,2.21ZM477.63,77.16c3.56-4.12,5.34-9.31,5.34-15.56s-1.78-11.46-5.34-15.63c-3.56-4.17-8.16-6.25-13.8-6.25s-10.11,2.08-13.67,6.25c-3.56,4.17-5.34,9.38-5.34,15.63s1.76,11.44,5.27,15.56c3.52,4.12,8.09,6.18,13.74,6.18s10.24-2.06,13.8-6.18Z"/>
  <circle class="cls-3" cx="12.41" cy="201.89" r="11.91"/>
  <path class="cls-3" d="M222.28,196.86c0-3.16,1.58-5.83,4.74-8.02,1.7-1.09,3.46-1.64,5.28-1.64,2.55,0,4.98,1.16,7.29,3.46,3.64,3.77,7.44,6.56,11.39,8.38,3.95,1.82,8.71,2.73,14.3,2.73,9.47-.36,14.21-3.95,14.21-10.75,0-3.52-1.61-6.19-4.83-8.02-3.22-1.82-8.23-3.64-15.03-5.47-7.05-1.94-12.78-3.89-17.21-5.83-4.43-1.94-8.26-4.89-11.48-8.83-3.22-3.95-4.83-9.26-4.83-15.94,0-5.83,1.67-10.9,5.01-15.21,3.34-4.31,7.71-7.65,13.11-10.02,5.4-2.37,11.14-3.55,17.21-3.55s12.39,1.16,18.58,3.46c6.19,2.31,11.05,5.71,14.57,10.2,1.58,1.94,2.37,4.13,2.37,6.56,0,2.79-1.16,5.1-3.46,6.92-1.7,1.34-3.64,2-5.83,2-2.67,0-4.86-.85-6.56-2.55-2.18-2.67-5.01-4.8-8.47-6.38-3.46-1.58-7.38-2.37-11.75-2.37-9.23,0-13.84,3.34-13.84,10.02,0,2.67.85,4.83,2.55,6.47,1.7,1.64,3.85,2.91,6.47,3.82,2.61.91,6.29,2.04,11.02,3.37,6.56,1.82,12.02,3.71,16.4,5.65,4.37,1.94,8.07,4.92,11.11,8.93,3.03,4.01,4.55,9.29,4.55,15.85,0,5.95-1.76,11.14-5.28,15.57-3.52,4.43-8.05,7.8-13.57,10.11-5.53,2.31-11.2,3.46-17.03,3.46-8.02,0-15.48-1.34-22.41-4.01-6.92-2.67-12.57-6.98-16.94-12.93-1.09-1.46-1.64-3.28-1.64-5.47Z"/>
  <path class="cls-3" d="M310.07,135.42c-1.3-1.02-1.95-2.83-1.95-5.43v-2.64c0-2.6.7-4.41,2.09-5.43,1.39-1.02,3.62-1.53,6.68-1.53,3.25,0,5.52.51,6.82,1.53,1.3,1.02,1.95,2.83,1.95,5.43v2.64c0,2.69-.67,4.52-2.02,5.5-1.35.97-3.64,1.46-6.89,1.46s-5.38-.51-6.68-1.53ZM322.88,218c-1.58,1.62-3.57,2.44-5.98,2.44s-4.41-.81-5.98-2.44c-1.58-1.62-2.36-3.64-2.36-6.05v-57.47c0-2.41.79-4.43,2.36-6.05,1.58-1.62,3.57-2.44,5.98-2.44s4.4.81,5.98,2.44c1.57,1.62,2.36,3.64,2.36,6.05v57.47c0,2.41-.79,4.43-2.36,6.05Z"/>
  <path class="cls-3" d="M405.43,130.49v-2.39c0-.3,0-.6-.03-.88-.18-2.04-.98-3.77-2.36-5.21-1.58-1.63-3.6-2.46-6.01-2.46s-4.45.83-6.04,2.46c-1.38,1.43-2.19,3.17-2.36,5.21,0,.28-.03.58-.03.88v1.26c-2.51-2.82-5.83-5.18-9.96-7.17-4.1-1.96-8.55-2.94-13.3-2.94-6.46,0-12.32,1.66-17.6,4.98-5.28,3.32-9.43,7.95-12.47,13.88-3.04,5.94-4.55,12.65-4.55,20.12s1.53,14.16,4.63,20.04c3.09,5.89,7.32,10.49,12.68,13.81,5.38,3.32,11.34,4.98,17.88,4.98,4.78,0,9.23-1.16,13.38-3.5,4.17-2.34,7.27-4.95,9.33-7.85v6.71c0,5.06-1.71,8.95-5.11,11.72-3.42,2.74-8.58,4.12-15.49,4.12-3.47,0-7.32-.83-11.57-2.46-4.25-1.63-6.56-2.49-6.94-2.59-.86-.28-1.74-.4-2.67-.4-1.58,0-3.07.53-4.43,1.61-1.36,1.06-2.31,2.64-2.87,4.68-.28.85-.43,1.61-.43,2.26,0,3.45,2.29,6.16,6.89,8.12,2.04.93,5.53,1.86,10.44,2.79,4.9.93,8.75,1.41,11.57,1.41,10.84,0,19.77-2.74,26.83-8.2,7.07-5.46,10.59-13.91,10.59-25.3v-40.09M383.35,174.98c-3.97,4.45-9.08,6.66-15.34,6.66s-11.37-2.21-15.29-6.66c-3.92-4.43-5.88-10.01-5.88-16.75s1.96-12.35,5.88-16.82c3.92-4.48,9.03-6.72,15.29-6.72s11.37,2.24,15.34,6.72c2.62,2.97,4.38,6.41,5.26,10.36v12.93c-.88,3.92-2.64,7.37-5.26,10.29Z"/>
  <line class="cls-6" x1=".5" y1="230.13" x2="340.38" y2="230.13"/>
  <text class="cls-4" transform="translate(15.48 266.31)"><tspan class="cls-2" x="0" y="0">c</tspan><tspan x="16.13" y="0">om</tspan><tspan class="cls-5" x="61.85" y="0">u</tspan><tspan x="78.94" y="0">nicação visu</tspan><tspan class="cls-1" x="256.53" y="0">a</tspan><tspan x="274.89" y="0">l</tspan></text>
</svg>