<?xml version="1.0" encoding="UTF-8"?>
<svg id="Camada_1" data-name="Camada 1" xmlns="http://www.w3.org/2000/svg" viewBox="0 0 497.88 266.31">
  <defs>
    <style>
      .cls-1 {
        font-family: Quicksand-Bold, Quicksand;
        font-size: 148.64px;
        font-weight: 700;
      }

      .cls-1, .cls-2 {
        fill: #7877df;
      }

      .cls-2 {
        stroke-width: 0px;
      }

      .cls-3 {
        fill: none;
        stroke: #7877df;
        stroke-linecap: round;
        stroke-miterlimit: 10;
      }
    </style>
  </defs>
  <g>
    <path class="cls-2" d="M66.33,27.61c1.47,1.48,2.21,3.39,2.21,5.73v55.09c0,2.26-.74,4.15-2.21,5.66-1.48,1.52-3.34,2.28-5.6,2.28s-4.1-.74-5.53-2.21c-1.43-1.47-2.19-3.34-2.28-5.6-2.17,2.52-5.1,4.67-8.79,6.45-3.69,1.78-7.58,2.67-11.66,2.67-5.99,0-11.42-1.54-16.28-4.62-4.86-3.08-8.7-7.36-11.53-12.83C1.85,74.75.43,68.54.43,61.6s1.39-13.17,4.17-18.69c2.78-5.51,6.58-9.81,11.4-12.89,4.82-3.08,10.13-4.62,15.95-4.62,4.17,0,8.07.76,11.72,2.28,3.65,1.52,6.73,3.45,9.25,5.8v-.13c0-2.26.74-4.14,2.21-5.66,1.48-1.52,3.34-2.28,5.6-2.28s4.12.74,5.6,2.21ZM48.23,77.16c3.56-4.12,5.34-9.31,5.34-15.56s-1.78-11.46-5.34-15.63c-3.56-4.17-8.16-6.25-13.8-6.25s-10.11,2.08-13.67,6.25c-3.56,4.17-5.34,9.38-5.34,15.63s1.76,11.44,5.27,15.56c3.52,4.12,8.09,6.18,13.74,6.18s10.24-2.06,13.8-6.18Z"/>
    <path class="cls-2" d="M141.07,33.27c3.39,5.25,5.08,12.52,5.08,21.81v33.34c0,2.26-.74,4.15-2.21,5.66-1.48,1.52-3.34,2.28-5.6,2.28s-4.12-.76-5.6-2.28c-1.48-1.52-2.21-3.41-2.21-5.66v-33.34c0-4.77-1-8.53-3-11.26-2-2.73-5.43-4.1-10.29-4.1s-8.99,1.45-11.85,4.36c-2.87,2.91-4.3,6.58-4.3,11v33.34c0,2.26-.74,4.15-2.21,5.66-1.48,1.52-3.34,2.28-5.6,2.28s-4.12-.76-5.6-2.28c-1.48-1.52-2.21-3.41-2.21-5.66v-53.78c0-2.26.74-4.14,2.21-5.66,1.48-1.52,3.34-2.28,5.6-2.28s4.12.76,5.6,2.28c1.47,1.52,2.21,3.41,2.21,5.66v2.21c2.34-3.13,5.4-5.81,9.18-8.07,3.78-2.26,7.92-3.39,12.44-3.39,8.86,0,14.98,2.63,18.36,7.88Z"/>
    <path class="cls-2" d="M218.69,33.27c3.39,5.25,5.08,12.52,5.08,21.81v33.34c0,2.26-.74,4.15-2.21,5.66-1.48,1.52-3.34,2.28-5.6,2.28s-4.12-.76-5.6-2.28c-1.48-1.52-2.21-3.41-2.21-5.66v-33.34c0-4.77-1-8.53-3-11.26-2-2.73-5.43-4.1-10.29-4.1s-8.99,1.45-11.85,4.36c-2.87,2.91-4.3,6.58-4.3,11v33.34c0,2.26-.74,4.15-2.21,5.66-1.48,1.52-3.34,2.28-5.6,2.28s-4.12-.76-5.6-2.28c-1.48-1.52-2.21-3.41-2.21-5.66v-53.78c0-2.26.74-4.14,2.21-5.66,1.48-1.52,3.34-2.28,5.6-2.28s4.12.76,5.6,2.28c1.47,1.52,2.21,3.41,2.21,5.66v2.21c2.34-3.13,5.4-5.81,9.18-8.07,3.78-2.26,7.92-3.39,12.44-3.39,8.86,0,14.98,2.63,18.36,7.88Z"/>
    <path class="cls-2" d="M302.68,27.61c1.47,1.48,2.21,3.39,2.21,5.73v55.09c0,2.26-.74,4.15-2.21,5.66-1.48,1.52-3.34,2.28-5.6,2.28s-4.1-.74-5.53-2.21c-1.43-1.47-2.19-3.34-2.28-5.6-2.17,2.52-5.1,4.67-8.79,6.45-3.69,1.78-7.58,2.67-11.66,2.67-5.99,0-11.42-1.54-16.28-4.62-4.86-3.08-8.7-7.36-11.53-12.83-2.82-5.47-4.23-11.68-4.23-18.62s1.39-13.17,4.17-18.69c2.78-5.51,6.58-9.81,11.4-12.89,4.82-3.08,10.13-4.62,15.95-4.62,4.17,0,8.07.76,11.72,2.28,3.65,1.52,6.73,3.45,9.25,5.8v-.13c0-2.26.74-4.14,2.21-5.66,1.48-1.52,3.34-2.28,5.6-2.28s4.12.74,5.6,2.21ZM284.58,77.16c3.56-4.12,5.34-9.31,5.34-15.56s-1.78-11.46-5.34-15.63c-3.56-4.17-8.16-6.25-13.8-6.25s-10.11,2.08-13.67,6.25c-3.56,4.17-5.34,9.38-5.34,15.63s1.76,11.44,5.27,15.56c3.52,4.12,8.09,6.18,13.74,6.18s10.24-2.06,13.8-6.18Z"/>
    <path class="cls-2" d="M374.17,30.02c4.86,3.08,8.7,7.36,11.52,12.83,2.82,5.47,4.23,11.68,4.23,18.62s-1.39,13.18-4.17,18.69c-2.78,5.51-6.58,9.81-11.39,12.89-4.82,3.08-10.14,4.62-15.95,4.62-4.17,0-8.1-.85-11.79-2.54-3.69-1.69-6.75-3.76-9.18-6.19v.78c0,2.26-.74,4.15-2.21,5.66-1.48,1.52-3.35,2.28-5.6,2.28s-4.12-.74-5.6-2.21c-1.48-1.48-2.21-3.39-2.21-5.73V7.94c0-2.26.74-4.14,2.21-5.66,1.48-1.52,3.34-2.28,5.6-2.28s4.12.76,5.6,2.28c1.47,1.52,2.21,3.41,2.21,5.66v27.22c2.08-2.61,4.99-4.88,8.72-6.84,3.73-1.95,7.64-2.93,11.72-2.93,5.99,0,11.42,1.54,16.28,4.62ZM369.61,77.09c3.56-4.17,5.34-9.38,5.34-15.63s-1.76-11.44-5.27-15.56c-3.52-4.12-8.09-6.18-13.74-6.18s-10.24,2.06-13.8,6.18c-3.56,4.13-5.34,9.31-5.34,15.56s1.78,11.46,5.34,15.63c3.56,4.17,8.16,6.25,13.8,6.25s10.11-2.08,13.67-6.25Z"/>
    <path class="cls-2" d="M403.47,16.8c-1.22-.95-1.82-2.65-1.82-5.08v-2.47c0-2.43.65-4.12,1.95-5.08,1.3-.95,3.39-1.43,6.25-1.43,3.04,0,5.16.48,6.38,1.43,1.22.96,1.82,2.65,1.82,5.08v2.47c0,2.52-.63,4.23-1.89,5.14-1.26.91-3.41,1.37-6.44,1.37s-5.04-.48-6.25-1.43ZM415.45,94.08c-1.48,1.52-3.34,2.28-5.6,2.28s-4.12-.76-5.6-2.28c-1.48-1.52-2.21-3.41-2.21-5.66v-53.78c0-2.26.74-4.14,2.21-5.66,1.48-1.52,3.34-2.28,5.6-2.28s4.12.76,5.6,2.28c1.48,1.52,2.21,3.41,2.21,5.66v53.78c0,2.26-.74,4.15-2.21,5.66Z"/>
    <path class="cls-2" d="M495.67,27.61c1.47,1.48,2.21,3.39,2.21,5.73v55.09c0,2.26-.74,4.15-2.21,5.66-1.48,1.52-3.34,2.28-5.6,2.28s-4.1-.74-5.54-2.21c-1.43-1.47-2.19-3.34-2.28-5.6-2.17,2.52-5.1,4.67-8.79,6.45-3.69,1.78-7.58,2.67-11.66,2.67-5.99,0-11.42-1.54-16.28-4.62-4.86-3.08-8.7-7.36-11.52-12.83-2.82-5.47-4.23-11.68-4.23-18.62s1.39-13.17,4.17-18.69c2.78-5.51,6.58-9.81,11.4-12.89,4.82-3.08,10.13-4.62,15.95-4.62,4.17,0,8.08.76,11.72,2.28,3.65,1.52,6.73,3.45,9.25,5.8v-.13c0-2.26.74-4.14,2.21-5.66,1.47-1.52,3.34-2.28,5.6-2.28s4.12.74,5.6,2.21ZM477.56,77.16c3.56-4.12,5.34-9.31,5.34-15.56s-1.78-11.46-5.34-15.63c-3.56-4.17-8.16-6.25-13.8-6.25s-10.11,2.08-13.67,6.25c-3.56,4.17-5.34,9.38-5.34,15.63s1.76,11.44,5.27,15.56c3.52,4.12,8.09,6.18,13.74,6.18s10.24-2.06,13.8-6.18Z"/>
  </g>
  <circle class="cls-2" cx="12.41" cy="206.47" r="11.91"/>
  <line class="cls-3" x1=".5" y1="232.38" x2="304.89" y2="232.38"/>
  <g>
    <path class="cls-2" d="M2.12,255.06c0-3.95,3.25-7.08,7.31-7.08,1.68,0,3.28.58,4.52,1.57.29.2.35.64.09.96-.23.26-.64.35-.96.12-1.02-.81-2.29-1.28-3.65-1.28-3.31,0-5.92,2.58-5.92,5.71s2.61,5.74,5.92,5.74c1.36,0,2.64-.46,3.65-1.25.32-.23.73-.14.96.12.26.32.2.75-.15,1.01-1.19.93-2.78,1.51-4.47,1.51-4.06,0-7.31-3.13-7.31-7.14Z"/>
    <path class="cls-2" d="M25.32,247.98c3.74,0,6.73,3.25,6.73,7.11s-2.99,7.11-6.73,7.11-6.73-3.25-6.73-7.11,3.02-7.11,6.73-7.11ZM25.32,260.8c2.9,0,5.34-2.55,5.34-5.71s-2.44-5.74-5.34-5.74-5.34,2.58-5.34,5.74,2.44,5.71,5.34,5.71Z"/>
    <path class="cls-2" d="M57.73,253.78c-.06-2.41-1.97-4.41-4.41-4.41s-4.38,2-4.38,4.41v7.83s-.03.06-.03.06v.06c-.06.17-.2.29-.35.38-.12.06-.23.09-.35.09h-.15s-.06-.03-.06-.03c-.06,0-.12-.06-.17-.09-.03,0-.06-.03-.09-.06l-.09-.09s-.03-.06-.06-.06t-.03-.06s0-.03-.03-.06c0-.03,0-.06-.03-.09v-7.89c0-2.41-1.94-4.41-4.38-4.41s-4.38,2-4.38,4.41v7.75c0,.23-.12.43-.32.55-.03.03-.12.09-.17.09-.03.03-.06.03-.12.03h-.17c-.26-.03-.49-.26-.58-.52v-13c0-.38.32-.67.67-.67.41,0,.7.29.7.67v1.36c1.04-1.25,2.61-2.03,4.38-2.03,2.2,0,4.09,1.22,5.08,3.02,1.02-1.8,2.93-3.02,5.11-3.02,3.19,0,5.77,2.58,5.77,5.77v7.75c0,.35-.29.67-.7.67-.38,0-.67-.32-.67-.67v-7.75Z"/>
    <path class="cls-2" d="M64.69,248.65c0-.41.32-.7.7-.7s.7.29.7.7v7.74c0,2.44,1.94,4.38,4.35,4.41,2.44-.03,4.41-1.97,4.41-4.41v-7.74c0-.41.35-.7.7-.7.41,0,.73.29.73.7v7.74c0,3.19-2.58,5.8-5.83,5.8s-5.74-2.61-5.74-5.8v-7.74Z"/>
    <path class="cls-2" d="M92.22,253.78c0-2.41-1.94-4.38-4.38-4.38s-4.35,1.97-4.41,4.38v7.83c-.03.12-.06.23-.15.32-.12.17-.32.26-.52.26h-.17c-.2-.06-.38-.2-.46-.38-.03-.03-.03-.06-.03-.09s-.03-.06-.03-.06v-12.97c0-.38.29-.7.7-.7.38,0,.67.32.67.7v1.36c1.04-1.25,2.64-2.06,4.41-2.06,3.19,0,5.77,2.61,5.77,5.77v7.72c0,.41-.32.7-.7.7s-.7-.29-.7-.7v-7.72Z"/>
    <path class="cls-2" d="M99.88,244.03c0-.38.32-.7.7-.7.41,0,.73.32.73.7v.67c0,.41-.32.75-.73.75-.38,0-.7-.35-.7-.75v-.67ZM99.88,248.68c0-.41.32-.7.7-.7.41,0,.73.29.73.7v12.82c0,.38-.32.7-.73.7-.38,0-.7-.32-.7-.7v-12.82Z"/>
    <path class="cls-2" d="M106.99,255.06c0-3.95,3.25-7.08,7.31-7.08,1.68,0,3.28.58,4.52,1.57.29.2.35.64.09.96-.23.26-.64.35-.96.12-1.02-.81-2.29-1.28-3.65-1.28-3.31,0-5.92,2.58-5.92,5.71s2.61,5.74,5.92,5.74c1.36,0,2.64-.46,3.65-1.25.32-.23.73-.14.96.12.26.32.2.75-.15,1.01-1.19.93-2.78,1.51-4.47,1.51-4.06,0-7.31-3.13-7.31-7.14Z"/>
    <path class="cls-2" d="M136.49,248.68v12.82c0,.38-.32.7-.7.7s-.7-.32-.7-.7v-2.12c-1.22,1.68-3.16,2.81-5.34,2.81-3.74,0-6.73-3.22-6.73-7.11s2.99-7.11,6.73-7.11c2.18,0,4.12,1.1,5.34,2.79v-2.09c0-.41.32-.7.7-.7s.7.29.7.7ZM135.1,255.09c0-3.19-2.41-5.74-5.34-5.74s-5.34,2.55-5.34,5.74,2.44,5.71,5.34,5.71,5.34-2.52,5.34-5.71Z"/>
    <path class="cls-2" d="M141.51,255.06c0-3.95,3.25-7.08,7.31-7.08,1.68,0,3.28.58,4.52,1.57.29.2.35.64.09.96-.23.26-.64.35-.96.12-1.02-.81-2.29-1.28-3.65-1.28-3.31,0-5.92,2.58-5.92,5.71s2.61,5.74,5.92,5.74c1.36,0,2.64-.46,3.65-1.25.32-.23.73-.14.96.12.26.32.2.75-.15,1.01-1.19.93-2.79,1.51-4.47,1.51-4.06,0-7.31-3.13-7.31-7.14ZM148.03,265.73c-.17.35-.32.58-.75.58-.46,0-.99-.38-.99-.7,0-.12.03-.23.15-.44l2.23-3.28h1.25l-1.89,3.83Z"/>
    <path class="cls-2" d="M171.68,248.68v12.82c0,.38-.32.7-.7.7s-.7-.32-.7-.7v-2.12c-1.22,1.68-3.16,2.81-5.34,2.81-3.74,0-6.73-3.22-6.73-7.11s2.99-7.11,6.73-7.11c2.18,0,4.12,1.1,5.34,2.79v-2.09c0-.41.32-.7.7-.7s.7.29.7.7ZM170.28,255.09c0-3.19-2.41-5.74-5.34-5.74s-5.34,2.55-5.34,5.74,2.44,5.71,5.34,5.71,5.34-2.52,5.34-5.71ZM161.26,245.66c-.29,0-.52-.2-.52-.49,0-.09.03-.26.06-.35.55-1.68,1.25-2.18,2.29-2.18,1.1,0,2.73,1.19,3.71,1.19.64,0,.96-.32,1.31-1.1.09-.17.26-.41.52-.41.29,0,.52.2.52.49,0,.09-.03.26-.06.35-.55,1.68-1.25,2.17-2.29,2.17-1.1,0-2.73-1.19-3.71-1.19-.64,0-.96.32-1.31,1.1-.09.17-.23.41-.52.41Z"/>
    <path class="cls-2" d="M181.8,247.98c3.74,0,6.73,3.25,6.73,7.11s-2.99,7.11-6.73,7.11-6.73-3.25-6.73-7.11,3.02-7.11,6.73-7.11ZM181.8,260.8c2.9,0,5.34-2.55,5.34-5.71s-2.44-5.74-5.34-5.74-5.34,2.58-5.34,5.74,2.44,5.71,5.34,5.71Z"/>
    <path class="cls-2" d="M207.13,262.08c-.09-.09-.17-.17-.23-.32l-5.34-12.71c-.15-.35.03-.75.35-.9.35-.15.78.03.9.38l4.73,11.2,4.73-11.2c.12-.35.55-.52.9-.38.35.14.49.55.35.9l-5.31,12.59c-.03.12-.09.23-.17.35-.12.15-.32.2-.46.2-.09,0-.15,0-.23-.03t-.06-.03c-.06,0-.09-.03-.15-.06Z"/>
    <path class="cls-2" d="M219.48,244.03c0-.38.32-.7.7-.7.41,0,.73.32.73.7v.67c0,.41-.32.75-.73.75-.38,0-.7-.35-.7-.75v-.67ZM219.48,248.68c0-.41.32-.7.7-.7.41,0,.73.29.73.7v12.82c0,.38-.32.7-.73.7-.38,0-.7-.32-.7-.7v-12.82Z"/>
    <path class="cls-2" d="M226.62,259.23c.23-.29.67-.35.99-.09.99.73,2.55,1.65,4.35,1.65,1.1,0,2.06-.35,2.7-.87.7-.46,1.07-1.1,1.07-1.74-.03-.67-.29-1.13-1.02-1.74-.61-.46-1.62-.81-3.02-1.04l-.06-.03c-1.28-.23-2.41-.52-3.22-1.1-.9-.52-1.54-1.45-1.54-2.55s.64-2.12,1.54-2.78c.84-.58,2.03-.96,3.48-.96,1.83,0,3.13.84,4.23,1.54.32.23.41.67.2.99-.2.32-.64.41-.96.2-1.04-.7-2.09-1.42-3.48-1.42-1.16,0-2.09.32-2.7.81-.58.46-.9,1.04-.9,1.62s.26.99.81,1.42c.64.43,1.6.78,2.9.99h.06c1.36.2,2.47.61,3.45,1.16.93.61,1.6,1.71,1.6,2.9s-.67,2.15-1.62,2.87c-.99.72-2.15,1.13-3.54,1.13-2.29-.03-4.09-1.1-5.25-2.03-.29-.26-.32-.64-.09-.93Z"/>
    <path class="cls-2" d="M241.59,248.65c0-.41.32-.7.7-.7s.7.29.7.7v7.74c0,2.44,1.94,4.38,4.35,4.41,2.44-.03,4.41-1.97,4.41-4.41v-7.74c0-.41.35-.7.7-.7.41,0,.73.29.73.7v7.74c0,3.19-2.58,5.8-5.83,5.8s-5.74-2.61-5.74-5.8v-7.74Z"/>
    <path class="cls-2" d="M271.58,248.68v12.82c0,.38-.32.7-.7.7s-.7-.32-.7-.7v-2.12c-1.22,1.68-3.16,2.81-5.34,2.81-3.74,0-6.73-3.22-6.73-7.11s2.99-7.11,6.73-7.11c2.18,0,4.12,1.1,5.34,2.79v-2.09c0-.41.32-.7.7-.7s.7.29.7.7ZM270.19,255.09c0-3.19-2.41-5.74-5.34-5.74s-5.34,2.55-5.34,5.74,2.44,5.71,5.34,5.71,5.34-2.52,5.34-5.71Z"/>
    <path class="cls-2" d="M278.23,242.58c0-.38.32-.7.7-.7.41,0,.73.32.73.7v18.91c0,.38-.32.7-.73.7-.38,0-.7-.32-.7-.7v-18.91Z"/>
  </g>
  <text class="cls-1" transform="translate(26.71 218.38)"><tspan x="0" y="0">design</tspan></text>
</svg>