<?xml version="1.0" encoding="UTF-8"?>
<svg id="Camada_1" data-name="Camada 1" xmlns="http://www.w3.org/2000/svg" xmlns:xlink="http://www.w3.org/1999/xlink" viewBox="0 0 1080 1080">
  <defs>
    <style>
      .cls-1 {
        fill: url(#Gradiente_sem_nome_23);
      }

      .cls-1, .cls-2 {
        stroke-width: 0px;
      }

      .cls-2 {
        fill: #fff;
      }
    </style>
    <linearGradient id="Gradiente_sem_nome_23" data-name="Gradiente sem nome 23" x1="308.05" y1="540" x2="771.95" y2="540" gradientUnits="userSpaceOnUse">
      <stop offset="0" stop-color="#6b4de6" stop-opacity=".87"/>
      <stop offset="1" stop-color="#4dade6"/>
    </linearGradient>
  </defs>
  <rect class="cls-2" width="1080" height="1080"/>
  <path class="cls-1" d="M452.74,588.7c.47,1.42.71,3.08.71,4.98.24,1.9.36,3.67.36,5.33,0,4.27-.47,8.29-1.42,12.09-.95,3.79-2.49,7.11-4.62,9.95-2.13,2.84-4.98,5.21-8.53,7.11-3.32,1.66-7.58,2.49-12.8,2.49s-9.95-1.07-14.93-3.2c-4.74-2.13-10.66-5.21-17.77-9.24l-76.43-44.08c-6.16-8.06-9.24-18.72-9.24-31.99,0-9.95,1.42-17.66,4.27-23.11,2.84-5.45,6.99-9.72,12.44-12.8l97.76-56.88c11.61,3.08,19.43,7.35,23.46,12.8,4.27,5.21,6.4,10.9,6.4,17.06,0,8.29-2.13,14.81-6.4,19.55-4.03,4.5-10.07,8.77-18.13,12.8l-62.57,31.64,87.45,45.5ZM543.45,684.15c-3.32.47-6.52.71-9.6.71-3.08.24-5.93.36-8.53.36-9.95,0-17.66-2.13-23.11-6.4-5.22-4.27-7.82-11.14-7.82-20.62,0-6.4.94-12.8,2.84-19.2,1.89-6.64,3.56-12.44,4.98-17.42l62.57-225.74c3.55-.47,6.87-.71,9.95-.71,3.08-.24,5.92-.36,8.53-.36,9.48,0,16.94,2.01,22.4,6.04,5.69,4.03,8.53,10.55,8.53,19.55,0,6.87-.95,13.39-2.84,19.55-1.9,6.16-3.68,12.32-5.33,18.49l-62.57,225.74ZM627.26,505.69c-.48-1.42-.83-3.08-1.07-4.98v-5.33c0-4.27.47-8.29,1.42-12.09.94-3.79,2.49-7.11,4.62-9.95,2.13-2.84,4.85-5.1,8.18-6.75,3.56-1.9,7.94-2.84,13.15-2.84s9.83,1.07,14.58,3.2c4.98,2.13,11.02,5.21,18.13,9.24l76.43,44.08c6.16,8.06,9.24,18.72,9.24,31.99,0,9.95-1.42,17.66-4.27,23.11-2.84,5.45-6.99,9.72-12.44,12.8l-97.76,56.88c-11.61-3.08-19.55-7.23-23.82-12.44-4.03-5.45-6.04-11.26-6.04-17.42,0-8.29,2.01-14.69,6.04-19.2,4.27-4.74,10.43-9.12,18.49-13.15l62.57-31.64-87.45-45.5Z"/>
</svg>