<?xml version="1.0" encoding="UTF-8"?>
<svg id="Camada_1" data-name="Camada 1" xmlns="http://www.w3.org/2000/svg" xmlns:xlink="http://www.w3.org/1999/xlink" viewBox="0 0 1080 1080">
  <defs>
    <style>
      .cls-1 {
        fill: #fff !important;
      }

      .cls-1, .cls-2 {
        stroke-width: 0px;
      }

      .cls-2 {
        fill: url(#Gradiente_sem_nome_3);
      }
    </style>
    <linearGradient id="Gradiente_sem_nome_3" data-name="Gradiente sem nome 3" x1="321.56" y1="540" x2="758.44" y2="540" gradientUnits="userSpaceOnUse">
      <stop offset="0" stop-color="#60bfc5"/>
      <stop offset="1" stop-color="#496bba"/>
    </linearGradient>
  </defs>
  <rect class="cls-1" width="1080" height="1080"/>
  <path class="cls-2" d="M758.44,431.63c0,21.88-17.71,39.59-39.55,39.59-10.09,0-19.3-3.79-26.28-10.01l-106.81,83.99c1.82,5.92,2.77,12.21,2.77,18.73,0,14.37-4.66,27.64-12.59,38.41l74.09,79.48c4.13-2.65,9.06-4.17,14.37-4.17,14.83,0,26.88,12.02,26.88,26.88s-12.06,26.88-26.88,26.88-26.88-12.06-26.88-26.88c0-3.07.53-6.03,1.48-8.76l-75.27-80.76c-11.07,8.76-25.06,13.95-40.23,13.95-16.34,0-31.28-6.03-42.7-16l-74.7,74.7c6.83,8.27,10.92,18.85,10.92,30.41,0,26.35-21.39,47.74-47.78,47.74s-47.74-21.39-47.74-47.74,21.39-47.78,47.74-47.78c8.46,0,16.38,2.2,23.28,6.07l76.67-76.67c-6.79-10.24-10.73-22.52-10.73-35.76s3.98-25.63,10.84-35.95l-50.7-44.1c-2.77.99-5.73,1.52-8.83,1.52-14.86,0-26.88-12.02-26.88-26.88s12.02-26.88,26.88-26.88,26.88,12.06,26.88,26.88c0,5.23-1.48,10.09-4.06,14.22l48.34,42.01c9.78-8.49,22.11-14.07,35.72-15.47v-90.24c-22.6-3.72-39.85-23.4-39.85-47.09,0-26.35,21.39-47.74,47.74-47.74s47.78,21.39,47.78,47.74c0,23.7-17.21,43.34-39.85,47.09h1.78v90.77c18.43,3.03,34.2,13.84,43.91,28.93l104.16-81.86c-1.97-4.7-3.03-9.82-3.03-15.24,0-21.84,17.71-39.55,39.55-39.55s39.55,17.71,39.55,39.55Z"/>
</svg>