<?xml version="1.0" encoding="UTF-8"?>
<svg id="Camada_1" data-name="Camada 1" xmlns="http://www.w3.org/2000/svg" viewBox="0 0 1080 1080">
  <defs>
    <style>
      .cls-1 {
        fill: #ec6f2c !important;
      }

      .cls-1, .cls-2 {
        stroke-width: 0px;
      }

      .cls-2 {
        fill: #313131;
      }
    </style>
  </defs>
  <rect class="cls-2" width="1080" height="1080"/>
  <path class="cls-1" d="M709.39,294.54l-115.35,165.15c-6.65,9.52.19,22.58,11.8,22.53l87.98-.35c12.41-.05,19.01,14.63,10.73,23.88l-265.94,297.36c-10.92,12.21-30.47-.51-23.74-15.44l73.37-162.69c4.31-9.55-2.76-20.34-13.23-20.22l-92.48,1.13c-10.24.12-17.3-10.22-13.45-19.71l123.49-304.47c2.18-5.39,7.41-8.92,13.22-8.94l191.8-.75c11.61-.05,18.45,13.01,11.8,22.53Z"/>
</svg>