<?xml version="1.0" encoding="UTF-8"?>
<svg id="Camada_1" data-name="Camada 1" xmlns="http://www.w3.org/2000/svg" viewBox="0 0 146.65 202.42">
  <defs>
    <style>
      .cls-1, .cls-2 {
        fill: none;
      }

      .cls-1, .cls-2, .cls-3 {
        stroke: #3e2b6b;
        stroke-miterlimit: 10;
      }

      .cls-4 {
        fill: #3e2b6b;
        stroke-width: 0px;
      }

      .cls-2 {
        stroke-linecap: round;
      }

      .cls-3 {
        fill: #fff;
      }
    </style>
  </defs>
  <g>
    <path class="cls-3" d="M143.05,116.49c-2.87-2.39-2.36-1.83-3.96-3.25-1.31-1.16-2.78-1.78-3.33-6.06-.15-3.9-.28-7.9-.28-12,0-43-29.24-71.94-62.02-71.94S14.44,58.1,14.1,101.1c-.37,46.37,26.2,81.29,59.35,77.85,51.97-5.4,61.76-22.74,62.83-47.09.03-.73.56-1.38,1.28-1.45,3.68-.36,7.24-2.56,8.27-5.59,1.48-4.36-2.59-8.18-2.78-8.34Z"/>
    <path class="cls-4" d="M18.53,26.03C-.2,47.68-3.25,78.47,2.83,99.7c2.95,10.3,6.77,13.86,7.85,25.97,1.56,17.46-5.26,22.46-4.23,40.46.55,9.63,1.41,24.53,11.47,32,5.87,4.36,8.39,1.38,40.46,3.62,11.15.78,14.61,1.4,18.12-1.21,4.32-3.22,6.12-9.41,4.83-30.8-1.09-18.17-3.9-38.82-6.04-56.16-2.23-18.07-2.61-23.47,1.21-27.17,6.19-6,15.03.57,29.59-6.04,2.66-1.2,11.15-5.2,16.91-14.49,4.93-7.96,5.53-16.07,5.43-19.93-.49-20.08-22.6-39.72-45.29-44.68C47.54-6.52,20.31,23.97,18.53,26.03Z"/>
    <ellipse class="cls-4" cx="125.04" cy="107.05" rx="3.4" ry="6.64"/>
    <path class="cls-2" d="M116.7,110.05c.3-.57,6.01-11.06,14.22-10.58"/>
    <path class="cls-2" d="M110.77,102.42c3.82-7.77,11.22-12.43,18.49-11.77"/>
  </g>
  <ellipse class="cls-1" cx="121.64" cy="104.03" rx="18.12" ry="21.19"/>
  <line class="cls-1" x1="103.52" y1="110.05" x2="64.22" y2="104.75"/>
</svg>