<?xml version="1.0" encoding="UTF-8"?>
<svg id="Camada_1" data-name="Camada 1" xmlns="http://www.w3.org/2000/svg" viewBox="0 0 604.27 680">
  <defs>
    <style>
      .cls-1 {
        fill: #ebe6e0;
        stroke-width: 0px;
      }
    </style>
  </defs>
  <path class="cls-1" d="M445.22,324.94h18.84l-2.45,23.02h-18.77l2.38-23.02ZM604.27,195.78v288.45c-.64,18.22-9.9,34.5-26.17,45.32l-249.8,144.22c-14.39,8.31-37.94,8.31-52.33,0L26.17,529.54c-15.16-9.94-25.05-25.97-26.17-45.32V195.78c0-16.62,11.77-37.01,26.17-45.32L275.97,6.23c14.39-8.31,37.94-8.31,52.33,0l249.8,144.22c15.11,10.2,25.58,27.84,26.17,45.32ZM476.57,440.77l-87.17-50.44c-58.15,93.08-186.57,47.6-187.98-50.33,4.69-106.25,135.35-137.37,187.97-50.33l87.17-50.44C362.96,56.47,99.53,143.32,100.71,340c5.05,212.04,275.74,274.57,375.86,100.77ZM497.38,308.91h-14.95l2.69-26.02h-16.6l-2.77,26.02h-18.89l2.69-26.02h-16.6l-2.77,26.02h-15.83v16.03h14.12l-2.45,23.02h-16.32v16.03h14.61l-3.03,28.46h16.91l2.95-28.46h18.73l-3.03,28.46h16.91l2.95-28.46h16v-16.03h-14.34l2.38-23.02h16.6v-16.03Z"/>
</svg>