<?xml version="1.0" encoding="UTF-8"?>
<svg id="Camada_1" data-name="Camada 1" xmlns="http://www.w3.org/2000/svg" viewBox="0 0 697.44 680">
  <defs>
    <style>
      .cls-1 {
        fill: #ebe6e0;
        stroke-width: 0px;
      }
    </style>
  </defs>
  <g id="Layer_2" data-name="Layer 2">
    <g id="Surfaces">
      <g id="Photo_Surface" data-name="Photo Surface">
        <g id="Outline_no_shadow" data-name="Outline no shadow">
          <path class="cls-1" d="M306.35,252.68c4.74,7.44,7.21,16.36,6.92,25.72,0,12.79-2.91,22.67-9.01,29.93-13.45,16.04-37.34,20.63-57.25,20.63h-15.4c-3.49,0-7.26-.29-11.33-.58v-97.64c2.03-.29,6.1-.58,11.91-.29,5.52-.29,12.21-.29,19.76-.29,20.02,0,42.89,4.45,54.4,22.52Z"/>
          <path class="cls-1" d="M573.93,0H123.5C55.21,0,0,55.21,0,123.5v432.99c0,68.29,55.21,123.5,123.5,123.5h450.43c68.29,0,123.5-55.21,123.5-123.5V123.5c0-68.29-55.21-123.5-123.5-123.5ZM359.18,338.55c-11.62,16.27-27.9,28.48-46.79,35.45-19.76,7.26-41.56,9.88-65.38,9.88-6.97,0-11.62,0-14.53-.29-2.91-.29-6.97-.29-12.5-.29v93.28c.29,2.03-1.16,3.78-3.2,4.07h-56.38c-2.32,0-3.49-1.16-3.49-3.78V177.85c0-2.03.87-3.2,2.91-3.2,4.94,0,9.59,0,16.27-.29,6.97-.29,14.24-.29,22.09-.58,7.85-.29,16.27-.29,25.28-.58,9.01-.29,17.73-.29,26.44-.29,23.83,0,43.59,2.91,59.86,9.01,14.53,4.94,27.9,13.08,38.94,23.83,9.3,9.3,16.56,20.63,21.21,33.13,4.36,12.21,6.68,24.7,6.68,37.78,0,24.99-5.81,45.62-17.44,61.9ZM565.21,451.59c-8.14,11.62-19.47,20.63-32.55,25.86-14.24,6.1-31.68,9.3-52.6,9.3-13.37,0-26.44-1.16-39.52-3.78-10.17-1.74-20.34-4.94-29.64-9.3-2.03-1.16-3.49-3.2-3.2-5.52v-50.56c0-.87.29-2.03,1.16-2.62.87-.58,1.74-.29,2.62.29,11.33,6.68,23.25,11.33,36.03,14.24,11.04,2.91,22.67,4.36,34.29,4.36s18.89-1.45,24.12-4.07c4.65-2.03,7.85-6.97,7.85-12.21,0-4.07-2.32-7.85-6.97-11.62-4.65-3.78-14.24-8.14-28.48-13.66-14.82-5.23-28.48-12.21-41.26-20.92-9.01-6.39-16.56-14.82-22.09-24.7-4.65-9.3-6.97-19.47-6.68-29.64,0-12.5,3.49-24.41,9.88-35.16,7.26-11.62,18.02-20.92,30.51-26.74,13.66-6.97,30.8-10.17,51.44-10.17,11.91,0,24.12.87,36.03,2.62,8.72,1.16,17.15,3.49,24.99,6.68,1.16.29,2.32,1.45,2.91,2.62.29,1.16.58,2.32.58,3.49v47.37c0,1.16-.58,2.32-1.45,2.91-2.62.58-4.07.58-5.23,0-8.72-4.65-18.02-7.85-27.9-9.88-10.75-2.32-21.5-3.78-32.55-3.78-5.81-.29-11.91.58-17.44,2.03-3.78.87-6.97,2.91-9.01,5.81-1.45,2.32-2.32,5.23-2.32,7.85s1.16,5.23,2.91,7.56c2.62,3.2,6.1,5.81,9.88,7.85,6.68,3.49,13.66,6.68,20.63,9.59,15.69,5.23,30.8,12.5,44.75,21.21,9.59,6.1,17.44,14.24,22.96,24.12,4.65,9.3,6.97,19.47,6.68,29.93.29,13.66-3.78,27.32-11.33,38.65Z"/>
        </g>
      </g>
    </g>
  </g>
</svg>