<?xml version="1.0" encoding="UTF-8"?>
<svg id="Camada_1" data-name="Camada 1" xmlns="http://www.w3.org/2000/svg" viewBox="0 0 679.92 680">
  <defs>
    <style>
      .cls-1 {
        fill: #ebe6e0;
        stroke-width: 0px;
      }
    </style>
  </defs>
  <path class="cls-1" d="M679.92,665.76c0,7.82-6.35,14.17-14.17,14.17h-70.83c-15.61,0-28.33-12.72-28.33-28.33v-184.15c0-7.82,6.35-14.17,14.17-14.17s14.17,6.35,14.17,14.17v184.15h70.83c7.82,0,14.17,6.35,14.17,14.17ZM322.23,553.26c-8.78-3.31-33.68-13.2-43.15-18.98-9.21-6.54-13.51-16.09-12.13-26.86,1.5-11.3,8.95-20.48,19.46-23.94,15.89-5.21,31.76-.25,50.09,15.67,5.89,5.13,14.82,4.48,20-1.42,5.13-5.89,4.48-14.85-1.42-20-25.92-22.44-51.99-29.61-77.51-21.16-20.94,6.91-35.75,24.96-38.7,47.2-2.72,21.05,6.18,41.08,24.93,54.31,13.94,8.64,44.96,20.43,48.13,21.62,29.8,12.04,28.7,34.11,27.65,40.54-2.95,18.16-18.95,31.3-38.02,31.3-14.87,0-38.19-10.43-49.89-22.3-5.5-5.58-14.45-5.64-20.03-.14-5.58,5.5-5.64,14.45-.14,20.03,14.9,15.1,45.19,30.74,70.06,30.74,33.03,0,60.8-23.17,66.01-55.1,3.71-23-5.84-55.5-45.3-71.48l-.06-.03ZM538.27,523.88v84.99c0,14.45-4.39,27.88-11.87,39.1l7.73,7.76c13.15,12.83-7.31,33.2-20.09,19.97l-7.73-7.76c-11.19,7.37-24.51,11.73-38.9,11.73-39.04,0-70.83-31.79-70.83-70.83v-84.99c0-39.04,31.79-70.83,70.83-70.83s70.83,31.79,70.83,70.83l.03.03ZM505.67,627.12c2.66-5.55,4.28-11.7,4.28-18.24v-84.99c0-23.43-19.07-42.5-42.5-42.5s-42.5,19.07-42.5,42.5v84.99c0,23.43,19.07,42.5,42.5,42.5,6.52,0,12.64-1.59,18.16-4.22l-14.05-14.11c-5.52-5.55-5.5-14.51.06-20.03,5.5-5.55,14.51-5.47,20.03.06l14,14.08.03-.03ZM169.7,660.32c-1.53,7.73-9.21,12.64-16.69,11.08C60.06,652.56,0,605.87,0,552.41V127.49C0,56.01,105.76,0,240.81,0s240.81,56.01,240.81,127.49v269.14c0,7.82-6.35,14.17-14.17,14.17s-14.17-6.35-14.17-14.17v-66.6c-40.2,39.97-119.35,66.6-212.48,66.6s-172.28-26.63-212.48-66.6v80.77c0,38.78,52.35,75.41,130.29,91.19,18.13,3.4,12.21,31.7-5.61,27.76-55.19-11.16-98.36-32.32-124.68-58.73v81.42c0,38.78,52.35,75.41,130.29,91.19,7.68,1.56,12.64,9.04,11.08,16.69ZM28.33,127.49c0,53.74,97.31,99.16,212.48,99.16s212.48-45.41,212.48-99.16S355.97,28.33,240.81,28.33,28.33,73.74,28.33,127.49ZM28.33,188.37v80.77c0,53.74,97.31,99.16,212.48,99.16s212.48-45.41,212.48-99.16v-80.77c-40.2,39.97-119.35,66.6-212.48,66.6s-172.28-26.63-212.48-66.6Z"/>
</svg>