<?xml version="1.0" encoding="UTF-8"?>
<svg id="Camada_1" data-name="Camada 1" xmlns="http://www.w3.org/2000/svg" viewBox="0 0 680 680">
  <defs>
    <style>
      .cls-1 {
        fill: #ebe6e0;
        stroke-width: 0px;
      }
    </style>
  </defs>
  <path class="cls-1" d="M495.22,0c-9.37,0-18.12,3.57-24.66,9.44-.09.09-1.37,1.35-1.85,1.88-.49.54-1.15,1.31-2.02,2.28-1.75,1.94-4.28,4.72-7.45,8.26-6.34,7.07-15.32,17.12-26.07,29.13-21.5,24.02-50.05,55.94-78.56,87.83l-104.49,116.87c-26.03-21.14-55.1-44.73-75.85-61.58-19.69-15.99-36.13-29.35-47.73-38.78-5.8-4.71-10.38-8.46-13.54-11.03-1.58-1.29-2.8-2.29-3.64-2.97-.36-.3-.63-.5-.84-.66l-.03-.03h-.03c-5.21-4.67-12.23-7.59-19.78-7.59-5.75,0-7.29,1.16-10.22,2.22-2.93,1.06-6.1,2.4-9.59,3.96-6.97,3.11-15.11,7.11-22.98,11.09-15.75,7.95-30.4,15.85-30.4,15.85l.09.17c-9.2,5.05-15.59,14.74-15.59,25.84v310.43c0,11.59,6.95,21.68,16.8,26.5l-.06.12s13.58,6.92,27.86,14.12c7.14,3.6,14.48,7.27,20.38,10.19,5.91,2.93,9.21,4.66,12.62,6.03,3.41,1.38,7.19,2.17,11.09,2.17,5.2,0,10.24-1.42,14.55-3.87l.03.03s1.35-.88,1.53-1.01c.18-.13.27-.17.35-.23.15-.11.21-.2.29-.26.16-.13.31-.23.49-.38.36-.29.84-.68,1.44-1.18,1.21-1,2.93-2.43,5.11-4.24,4.36-3.63,10.51-8.78,17.9-14.96,14.77-12.34,34.39-28.76,53.99-45.16,33.89-28.36,59.17-49.53,67.71-56.68,53.53,58.1,107.11,116.25,147.48,160.04,20.73,22.48,38.08,41.28,50.32,54.54,6.12,6.63,10.97,11.87,14.35,15.5,1.69,1.82,2.99,3.24,3.93,4.24.47.5.86.87,1.15,1.18.3.31-.63-.43,1.3,1.3l.03.03c6.52,5.8,15.23,9.35,24.57,9.35,5.48,0,10.66-1.3,15.36-3.49l.06.12s35.55-18.39,71.63-37.1c18.04-9.35,36.21-18.79,50.15-26.04,6.97-3.63,12.89-6.72,17.21-8.98,4.32-2.26,6.05-3.11,8.03-4.24,13.37-7.65,22.35-22.14,22.35-38.52V118.26c0-15.2-7.75-28.79-19.55-36.75-2.01-1.36-2.21-1.34-3.61-2.11-1.4-.77-3.22-1.74-5.43-2.92-4.42-2.35-10.42-5.52-17.47-9.21-14.1-7.38-32.43-16.91-50.61-26.33-36.35-18.84-72.07-37.26-72.09-37.27h-.03c-4.86-2.33-10.32-3.67-16-3.67ZM495.22,29.57c1.62,0,2.93.43,4.13,1.24,1.99,1.35,3.26,3.48,3.26,6.15v148.32l-166.91,139.92c-8.68-7.05-8.72-7.08-17.47-14.18-16.38-13.3-29.14-23.65-45.13-36.64,8.95-10.02,51.69-57.88,103.54-115.86,28.51-31.89,57.07-63.82,78.56-87.83,10.75-12.01,19.74-22.02,26.07-29.07,3.17-3.53,5.64-6.32,7.36-8.23.78-.86,1.35-1.51,1.79-1.99,1.28-1.11,2.86-1.82,4.79-1.82ZM532.17,47.78c13.64,7.04,18.63,9.59,37.56,19.4,18.16,9.42,36.49,18.96,50.53,26.3,7.02,3.67,12.96,6.8,17.27,9.09,2.15,1.15,3.89,2.08,5.11,2.74,1.22.67,2.66,1.62,1.24.66h.03v.03c3.93,2.65,6.53,7.04,6.53,12.24v443.48c0,5.62-3.02,10.3-7.48,12.85.9-.51-2.76,1.49-7.04,3.72-4.28,2.24-10.16,5.3-17.12,8.92-13.92,7.24-32.12,16.69-50.15,26.04-18.37,9.53-23,11.91-36.47,18.88V47.78ZM89.1,162.96c.11.09.38.31.52.43.26.21.58.48,1.01.84.86.71,2.11,1.71,3.7,3,3.17,2.59,7.74,6.31,13.54,11.03,11.6,9.43,28.06,22.81,47.75,38.8,39.39,31.99,91.73,74.48,143.99,116.9,101.63,82.5,197.47,160.29,203,164.77v144.3c0,2.85-1.5,5.11-3.72,6.35-.03.01-1.03.54-1.04.55-.81.29-1.68.49-2.63.49-1.95,0-3.52-.68-4.82-1.82-.19-.21-.35-.39-.64-.69-.89-.95-2.2-2.35-3.87-4.16-3.35-3.61-8.18-8.83-14.29-15.45-12.23-13.24-29.57-32.04-50.3-54.51-41.45-44.95-96.47-104.65-151.44-164.31-54.97-59.66-109.88-119.28-151.15-164.05-20.63-22.38-37.85-41.05-49.95-54.16-5.23-5.67-9.02-9.75-12.21-13.19,1.34-.69,1.29-.69,2.66-1.39,7.64-3.86,15.52-7.72,21.71-10.48,3.1-1.38,5.81-2.49,7.62-3.15.23-.08.32-.06.55-.12ZM29.57,192.43c.84.9,1.92,2.07,3.41,3.67,3.27,3.53,8.04,8.67,14.09,15.22,6.5,7.05,17.65,19.15,26.85,29.13v212.5l-44.29,49.57s-.03.09-.06.09V192.43ZM502.61,223.85v236.81c-15.78-12.8-74.48-60.46-143.52-116.5l143.52-120.31ZM103.48,272.53c18.75,20.34,44.13,47.91,66.81,72.53l-66.81,74.78v-147.31ZM190.41,366.88c14.58,15.83,26.51,28.8,41.6,45.19-9.2,7.7-33.27,27.86-66.61,55.75-19.59,16.4-39.2,32.8-53.96,45.13-7.38,6.17-13.54,11.32-17.87,14.93-2.17,1.81-3.89,3.22-5.05,4.19l-.03.03c.47.18-4.71-2.24-10.39-5.05-5.8-2.87-13.07-6.49-20.18-10.08-.55-.28-.52-.27-1.07-.55l133.56-149.53ZM88.84,532.09l6.81,12.18-6.99-12.07.03-.03s.14-.09.14-.09Z"/>
</svg>